<?xml version="1.0" encoding="UTF-8" standalone="no"?>
<!-- Created with Inkscape (http://www.inkscape.org/) -->

<svg
   xmlns:dc="http://purl.org/dc/elements/1.1/"
   xmlns:cc="http://creativecommons.org/ns#"
   xmlns:rdf="http://www.w3.org/1999/02/22-rdf-syntax-ns#"
   xmlns:svg="http://www.w3.org/2000/svg"
   xmlns="http://www.w3.org/2000/svg"
   xmlns:sodipodi="http://sodipodi.sourceforge.net/DTD/sodipodi-0.dtd"
   xmlns:inkscape="http://www.inkscape.org/namespaces/inkscape"
   width="119.46947mm"
   height="41.426773mm"
   viewBox="0 0 119.46947 41.426773"
   version="1.1"
   id="svg8"
   inkscape:version="0.92.3 (2405546, 2018-03-11)"
   sodipodi:docname="illumine_logo.svg">
  <title
     id="title3862">Illumine Logo</title>
  <defs
     id="defs2">
    <inkscape:path-effect
       effect="bspline"
       id="path-effect3852"
       is_visible="true"
       weight="33.333333"
       steps="2"
       helper_size="0"
       apply_no_weight="true"
       apply_with_weight="true"
       only_selected="false" />
    <inkscape:path-effect
       effect="bspline"
       id="path-effect3832"
       is_visible="true"
       weight="33.333333"
       steps="2"
       helper_size="0"
       apply_no_weight="true"
       apply_with_weight="true"
       only_selected="false" />
    <inkscape:path-effect
       effect="bspline"
       id="path-effect3828"
       is_visible="true"
       weight="33.333333"
       steps="2"
       helper_size="0"
       apply_no_weight="true"
       apply_with_weight="true"
       only_selected="false" />
    <inkscape:path-effect
       effect="bspline"
       id="path-effect3824"
       is_visible="true"
       weight="33.333333"
       steps="2"
       helper_size="0"
       apply_no_weight="true"
       apply_with_weight="true"
       only_selected="false" />
    <inkscape:path-effect
       effect="bspline"
       id="path-effect3820"
       is_visible="true"
       weight="33.333333"
       steps="2"
       helper_size="0"
       apply_no_weight="true"
       apply_with_weight="true"
       only_selected="false" />
    <inkscape:path-effect
       effect="bspline"
       id="path-effect3816"
       is_visible="true"
       weight="33.333333"
       steps="2"
       helper_size="0"
       apply_no_weight="true"
       apply_with_weight="true"
       only_selected="false" />
  </defs>
  <sodipodi:namedview
     id="base"
     pagecolor="#ffffff"
     bordercolor="#666666"
     borderopacity="1.0"
     inkscape:pageopacity="0.0"
     inkscape:pageshadow="2"
     inkscape:zoom="0.98994949"
     inkscape:cx="-94.85325"
     inkscape:cy="35.317443"
     inkscape:document-units="mm"
     inkscape:current-layer="layer4"
     showgrid="false"
     fit-margin-top="0"
     fit-margin-left="0"
     fit-margin-right="0"
     fit-margin-bottom="0"
     inkscape:window-width="1846"
     inkscape:window-height="1058"
     inkscape:window-x="66"
     inkscape:window-y="-8"
     inkscape:window-maximized="1" />
  <metadata
     id="metadata5">
    <rdf:RDF>
      <cc:Work
         rdf:about="">
        <dc:format>image/svg+xml</dc:format>
        <dc:type
           rdf:resource="http://purl.org/dc/dcmitype/StillImage" />
        <dc:title>Illumine Logo</dc:title>
      </cc:Work>
    </rdf:RDF>
  </metadata>
  <g
     inkscape:groupmode="layer"
     id="layer4"
     inkscape:label="resize2"
     transform="translate(-26.192413,-87.727959)">
    <rect
       style="fill:#ffffff;stroke-width:0.26458332"
       id="rect3860"
       width="119.46947"
       height="41.426773"
       x="26.192413"
       y="87.727959" />
  </g>
  <g
     inkscape:label="Layer 1"
     inkscape:groupmode="layer"
     id="layer1"
     transform="translate(-26.192413,-87.727959)">
    <text
       xml:space="preserve"
       style="font-style:normal;font-weight:normal;font-size:10.58333302px;line-height:1.25;font-family:sans-serif;letter-spacing:0px;word-spacing:0px;fill:#000000;fill-opacity:1;stroke:none;stroke-width:0.26458332"
       x="62.744045"
       y="102.72024"
       id="text3715"><tspan
         sodipodi:role="line"
         id="tspan3713"
         x="62.744045"
         y="102.72024"
         style="stroke-width:0.26458332"><tspan
   style="font-style:normal;font-variant:normal;font-weight:normal;font-stretch:normal;font-size:9.17222214px;font-family:Verdana;-inkscape-font-specification:Verdana"
   id="tspan3740">Project</tspan> </tspan><tspan
         sodipodi:role="line"
         x="62.744045"
         y="115.9494"
         style="stroke-width:0.26458332"
         id="tspan3717" /></text>
    <text
       xml:space="preserve"
       style="font-style:normal;font-weight:normal;font-size:10.58333302px;line-height:1.25;font-family:sans-serif;letter-spacing:0px;word-spacing:0px;fill:#000000;fill-opacity:1;stroke:none;stroke-width:0.26458332"
       x="42.48061"
       y="97.063881"
       id="text3715-5"><tspan
         sodipodi:role="line"
         id="tspan3713-0"
         x="42.48061"
         y="97.063881"
         style="stroke-width:0.26458332"> </tspan><tspan
         sodipodi:role="line"
         x="42.48061"
         y="121.23595"
         style="font-style:normal;font-variant:normal;font-weight:normal;font-stretch:normal;font-size:22.57777786px;font-family:Verdana;-inkscape-font-specification:Verdana;stroke-width:0.26458332"
         id="tspan3717-2">illumine</tspan></text>
    <flowRoot
       xml:space="preserve"
       id="flowRoot3744"
       style="font-style:normal;font-weight:normal;font-size:40px;line-height:1.25;font-family:sans-serif;letter-spacing:0px;word-spacing:0px;fill:#000000;fill-opacity:1;stroke:none"><flowRegion
         id="flowRegion3746"><rect
           id="rect3748"
           width="26.785715"
           height="43.214287"
           x="308.57144"
           y="441.80539" /></flowRegion><flowPara
         id="flowPara3750"></flowPara></flowRoot>  </g>
  <g
     inkscape:groupmode="layer"
     id="layer2"
     inkscape:label="flame"
     transform="translate(-26.192413,-87.727959)">
    <path
       style="fill:none;stroke:#000000;stroke-width:0.26458332px;stroke-linecap:butt;stroke-linejoin:miter;stroke-opacity:1"
       d="m 45.360222,97.416716 c -0.02363,0.0315 -0.04628,0.06375 -0.07087,0.09449 -0.01392,0.01738 -0.03489,0.02871 -0.04725,0.04725 -0.0098,0.01466 -0.01386,0.0326 -0.02363,0.04725 -0.01434,0.02151 -0.0604,0.04993 -0.07087,0.07087 -0.007,0.01408 0.007,0.03316 0,0.04725 -0.005,0.01 -0.01865,0.01365 -0.02363,0.02363 -0.0035,0.007 0.0035,0.01659 0,0.02363 -0.005,0.0099 -0.01865,0.01365 -0.02363,0.02363 -0.007,0.01408 0.007,0.03316 0,0.04725 -0.005,0.0099 -0.01865,0.01365 -0.02363,0.02363 -0.0047,0.0094 0.0048,0.06604 0,0.07087 -0.0056,0.0056 -0.01804,-0.0056 -0.02363,0 -0.01114,0.01114 0.007,0.03316 0,0.04725 -0.005,0.0099 -0.01865,0.01365 -0.02363,0.02363 -0.0035,0.007 0,0.01574 0,0.02363 -0.0079,0.0079 -0.01865,0.01365 -0.02363,0.02363 -0.0094,0.01889 0.0094,0.05197 0,0.07087 -0.005,0.0099 -0.01865,0.01365 -0.02363,0.02363 -0.007,0.01408 0.007,0.03316 0,0.04725 -0.0099,0.01992 -0.03729,0.02733 -0.04725,0.04725 -0.02678,0.05355 0.02677,-0.0063 0,0.04725 -0.005,0.0099 -0.01865,0.01365 -0.02363,0.02363 -0.007,0.01408 0.007,0.03316 0,0.04725 -0.005,0.0099 -0.01865,0.01365 -0.02363,0.02363 -0.007,0.01408 0.007,0.03316 0,0.04725 -0.005,0.0099 -0.01865,0.01365 -0.02363,0.02363 -0.003,0.0061 0,0.124997 0,0.141743 0,0.110241 0,0.220485 0,0.330729 0,0.118115 0,0.236233 0,0.354351 0,0.04725 0,0.09449 0,0.141742 0,0.01064 0.0036,0.06368 0,0.07087 -0.005,0.0099 -0.01865,0.01365 -0.02363,0.02363 -0.0036,0.0072 0,0.06023 0,0.07087 0,0.0079 0,0.0315 0,0.02363 0,-0.01574 0,-0.063 0,-0.04725 0,0.07875 0,0.157491 0,0.236236 0,0.0079 0,0.01574 0,0.02363 0,0.0079 0.0056,0.01805 0,0.02363 -0.0056,0.0056 -0.01804,-0.0056 -0.02363,0 -0.0056,0.0056 0.0035,0.01659 0,0.02363 -0.005,0.01 -0.01865,0.01365 -0.02363,0.02363 -0.0094,0.01889 0.0094,0.05197 0,0.07087 -0.07835,0.07835 0.01114,-0.02228 -0.02363,0.04725 -0.005,0.01 -0.01865,0.0136 -0.02363,0.0236 -0.02677,0.0536 0.02677,-0.006 0,0.0473 -0.005,0.01 -0.01574,0.0157 -0.02363,0.0236 -0.0079,0.008 -0.01865,0.0136 -0.02363,0.0236 -0.0035,0.007 0.0035,0.0166 0,0.0236 -0.01,0.0199 -0.03729,0.0273 -0.04725,0.0472 -0.0035,0.007 0.0056,0.0181 0,0.0236 -0.0056,0.006 -0.01805,-0.006 -0.02363,0 -0.0056,0.006 0.0035,0.0166 0,0.0236 -0.005,0.01 -0.01865,0.0136 -0.02363,0.0236 -0.0035,0.007 0.0056,0.0181 0,0.0236 -0.04888,0.0489 0.0019,-0.0747 -0.04725,0.0236 -0.0035,0.007 0.0035,0.0166 0,0.0236 -0.005,0.01 -0.01865,0.0136 -0.02363,0.0236 -0.0035,0.007 0.0035,0.0166 0,0.0236 -0.01,0.0199 -0.0402,0.0261 -0.04725,0.0472 -0.005,0.0149 0.007,0.0332 0,0.0473 -0.0035,0.007 -0.01804,-0.006 -0.02363,0 -0.0056,0.006 0.0035,0.0166 0,0.0236 -0.005,0.01 -0.01865,0.0136 -0.02363,0.0236 -0.0035,0.007 0.0035,0.0166 0,0.0236 -0.005,0.01 -0.01865,0.0136 -0.02363,0.0236 -0.0035,0.007 0.0056,0.0181 0,0.0236 -0.0056,0.006 -0.01804,-0.006 -0.02363,0 -0.0056,0.006 0.0035,0.0166 0,0.0236 -0.005,0.01 -0.01865,0.0136 -0.02363,0.0236 -0.0035,0.007 0.0056,0.0181 0,0.0236 -0.0056,0.006 -0.01659,-0.004 -0.02363,0 -0.05223,0.0261 -0.0073,0.0147 -0.02363,0.0472 -0.005,0.01 -0.01574,0.0157 -0.02363,0.0236 -0.01857,0.0186 -0.110593,0.10307 -0.118118,0.11811 -0.0035,0.007 0.0056,0.0181 0,0.0236 -0.0056,0.006 -0.01804,-0.006 -0.02363,0 -0.0056,0.006 0.0035,0.0166 0,0.0236 -0.02611,0.0522 -0.01466,0.007 -0.04725,0.0236 -0.0045,0.002 -0.09223,0.09 -0.0945,0.0945 -0.0035,0.007 0.0056,0.0181 0,0.0236 -0.0056,0.006 -0.01805,-0.006 -0.02363,0 -0.0056,0.006 0.0035,0.0166 0,0.0236 -0.04916,0.0983 0.0016,-0.0252 -0.04725,0.0236 -0.0056,0.006 0.0056,0.018 0,0.0236 -0.0056,0.006 -0.01804,-0.006 -0.02363,0 -0.0056,0.006 0.0056,0.018 0,0.0236 -0.0056,0.006 -0.01805,-0.006 -0.02363,0 -0.01114,0.0111 0.007,0.0332 0,0.0473 -0.0099,0.0199 -0.03729,0.0273 -0.04725,0.0473 -0.0035,0.007 0.0056,0.0181 0,0.0236 -0.0056,0.006 -0.01804,-0.006 -0.02363,0 -0.0056,0.006 0.0056,0.0181 0,0.0236 -0.0056,0.006 -0.01805,-0.006 -0.02363,0 -0.01114,0.0111 0.007,0.0332 0,0.0473 -0.04916,0.0983 0.0016,-0.0252 -0.04725,0.0236 -0.0056,0.006 0.0056,0.0181 0,0.0236 -0.01246,0.0125 -0.0348,0.0112 -0.04725,0.0236 -0.0056,0.006 0.0035,0.0166 0,0.0236 -0.005,0.01 -0.01865,0.0136 -0.02363,0.0236 -0.0035,0.007 0.0035,0.0166 0,0.0236 -0.04916,0.0983 0.0016,-0.0252 -0.04725,0.0236 -0.0056,0.006 0.0035,0.0166 0,0.0236 -0.005,0.01 -0.01574,0.0157 -0.02363,0.0236 -0.0079,0.008 -0.01365,0.0186 -0.02363,0.0236 -0.007,0.004 -0.01804,-0.006 -0.02363,0 -0.0056,0.006 0.0056,0.0181 0,0.0236 -0.0056,0.006 -0.01804,-0.006 -0.02363,0 -0.04888,0.0489 0.07469,-0.002 -0.02363,0.0473 -0.007,0.003 -0.01659,-0.004 -0.02363,0 -0.0099,0.005 -0.01574,0.0157 -0.02363,0.0236 -0.0079,0.008 -0.01865,0.0136 -0.02363,0.0236 -0.0035,0.007 0.0056,0.0181 0,0.0236 -0.01114,0.0111 -0.03316,-0.007 -0.04725,0 -0.07835,0.0784 0.02228,-0.0111 -0.04725,0.0236 -0.0099,0.005 -0.01574,0.0157 -0.02363,0.0236 0,0.008 0.007,0.0201 0,0.0236 -0.01408,0.007 -0.03316,-0.007 -0.04725,0 -0.007,0.004 0.0056,0.0181 0,0.0236 -0.0056,0.006 -0.01805,-0.006 -0.02363,0 -0.0056,0.006 0.0056,0.0181 0,0.0236 -0.01246,0.0125 -0.0326,0.0139 -0.04725,0.0236 -0.01852,0.0124 -0.02872,0.0349 -0.04725,0.0473 -0.01466,0.01 -0.0326,0.0139 -0.04725,0.0236 -0.0093,0.006 -0.01365,0.0187 -0.02363,0.0236 -0.007,0.004 -0.01804,-0.006 -0.02363,0 -0.0056,0.006 0.0035,0.0166 0,0.0236 -0.01418,0.0283 -0.0567,0.0425 -0.07087,0.0709 -0.0035,0.007 0,0.0157 0,0.0236 -0.0079,0.008 -0.01865,0.0136 -0.02363,0.0236 -0.0035,0.007 0.0035,0.0166 0,0.0236 -0.0099,0.0199 -0.03729,0.0273 -0.04725,0.0473 -0.0035,0.007 0.0056,0.018 0,0.0236 -0.0056,0.006 -0.01804,-0.006 -0.02363,0 -0.01114,0.0111 0.007,0.0332 0,0.0473 -0.0099,0.0199 -0.03729,0.0273 -0.04725,0.0472 -0.007,0.0141 0.01114,0.0361 0,0.0473 -0.0056,0.006 -0.01805,-0.006 -0.02363,0 -0.01114,0.0111 0.01114,0.0361 0,0.0473 -0.0056,0.006 -0.01804,-0.006 -0.02363,0 -0.03346,0.0335 0.03346,0.0138 0,0.0472 -0.0056,0.006 -0.01659,-0.004 -0.02363,0 -0.09832,0.0492 0.02524,-0.002 -0.02363,0.0473 -0.0056,0.006 -0.01804,-0.006 -0.02363,0 -0.0056,0.006 0.0056,0.018 0,0.0236 -0.0056,0.006 -0.01805,-0.006 -0.02363,0 -0.0056,0.006 0.0035,0.0166 0,0.0236 -0.01,0.0199 -0.03729,0.0273 -0.04725,0.0473 -0.0035,0.007 0.0035,0.0166 0,0.0236 -0.0099,0.0199 -0.03729,0.0273 -0.04725,0.0473 -0.0035,0.007 0.0056,0.018 0,0.0236 -0.0056,0.006 -0.01804,-0.006 -0.02363,0 -0.01114,0.0111 0.01114,0.0361 0,0.0472 -0.0056,0.006 -0.01574,0 -0.02363,0 0,0.0157 0.005,0.0323 0,0.0473 -0.02458,0.0737 -0.01574,-0.008 -0.04725,0.0236 -0.0056,0.006 0.0035,0.0166 0,0.0236 -0.005,0.01 -0.01865,0.0137 -0.02363,0.0236 -0.0035,0.007 0.0035,0.0166 0,0.0236 -0.0099,0.0199 -0.03729,0.0273 -0.04725,0.0472 -0.0035,0.007 0.0056,0.018 0,0.0236 -0.0056,0.006 -0.01804,-0.006 -0.02363,0 -0.01114,0.0111 0.007,0.0332 0,0.0472 -0.0099,0.0199 -0.03728,0.0273 -0.04725,0.0473 -0.007,0.0141 0.005,0.0323 0,0.0473 -0.0079,0.0157 -0.01574,0.0315 -0.02363,0.0472 -0.0079,0 -0.01804,-0.006 -0.02363,0 -0.0056,0.006 0.0035,0.0166 0,0.0236 -0.07835,0.0784 0.01114,-0.0223 -0.02363,0.0473 -0.005,0.01 -0.01865,0.0136 -0.02363,0.0236 -0.007,0.0141 0.007,0.0332 0,0.0473 -0.005,0.01 -0.01865,0.0136 -0.02363,0.0236 -0.0064,0.0128 0.0065,0.088 0,0.0945 -0.0056,0.006 -0.01805,-0.006 -0.02363,0 -0.0065,0.006 0.0064,0.0817 0,0.0945 -0.005,0.01 -0.01865,0.0136 -0.02363,0.0236 -0.0035,0.007 0,0.0157 0,0.0236 -0.0079,0.008 -0.01865,0.0136 -0.02363,0.0236 -0.0035,0.007 0,0.0157 0,0.0236 0,0.008 0,0.0157 0,0.0236 0,0.0473 0,0.0945 0,0.14175 0,0.15748 0,0.31497 0,0.47246 0,0.14962 0,0.29923 0,0.44885 0,0.0551 0,0.11025 0,0.16537 0,0.0155 -0.0044,0.0575 0,0.0709 0.0056,0.0167 0.01805,0.0305 0.02363,0.0472 0.0024,0.008 -0.0035,0.0166 0,0.0236 0.005,0.01 0.01865,0.0136 0.02363,0.0236 0.0035,0.007 0,0.0157 0,0.0236 0,0.0157 -0.005,0.0323 0,0.0473 0.0035,0.0106 0.02011,0.0131 0.02363,0.0236 0.0099,0.0299 -0.0099,0.0646 0,0.0945 0.0035,0.0106 0.01744,0.0144 0.02363,0.0236 0.0098,0.0147 0.01804,0.0305 0.02363,0.0472 0.0031,0.009 -0.0037,0.0672 0,0.0709 0.0056,0.006 0.01804,-0.006 0.02363,0 0.0048,0.005 -0.0047,0.0615 0,0.0709 0.005,0.01 0.01865,0.0136 0.02363,0.0236 0.0035,0.007 -0.0035,0.0166 0,0.0236 0.005,0.01 0.01865,0.0136 0.02363,0.0236 0.007,0.0141 -0.007,0.0332 0,0.0472 0.005,0.01 0.01865,0.0137 0.02363,0.0236 0.007,0.0141 -0.007,0.0332 0,0.0472 0.005,0.01 0.01865,0.0136 0.02363,0.0236 0.007,0.0141 -0.01114,0.0361 0,0.0472 0.0056,0.006 0.01805,-0.006 0.02363,0 0.0065,0.007 -0.0064,0.0817 0,0.0945 0.005,0.01 0.01865,0.0136 0.02363,0.0236 0.0064,0.0128 -0.0065,0.088 0,0.0945 0.0056,0.006 0.01804,-0.006 0.02363,0 0.0056,0.006 -0.0035,0.0166 0,0.0236 0.005,0.01 0.01865,0.0137 0.02363,0.0236 0.0094,0.0189 -0.0094,0.052 0,0.0709 0.0035,0.007 0.01804,-0.006 0.02363,0 0.01114,0.0111 -0.007,0.0332 0,0.0472 0.005,0.01 0.01865,0.0136 0.02363,0.0236 0.0035,0.007 -0.0024,0.0162 0,0.0236 0.0056,0.0167 0.01807,0.0305 0.02363,0.0472 0.0031,0.009 -0.0037,0.0672 0,0.0709 0.0056,0.006 0.01805,-0.006 0.02363,0 0.0056,0.006 -0.0024,0.0162 0,0.0236 0.05704,0.17111 -0.0068,-0.0372 0.04725,0.0709 0.0035,0.007 -0.0056,0.0181 0,0.0236 0.0056,0.006 0.01805,-0.006 0.02363,0 0.0056,0.006 -0.0035,0.0166 0,0.0236 0.005,0.01 0.01865,0.0136 0.02363,0.0236 0.02909,0.0582 -0.06857,-0.0213 0.02363,0.0709 0.0056,0.006 0.02011,-0.007 0.02363,0 0.007,0.0141 -0.007,0.0332 0,0.0473 0.0035,0.007 0.01804,-0.006 0.02363,0 0.0056,0.006 -0.0056,0.018 0,0.0236 0.0056,0.006 0.01805,-0.006 0.02363,0 0.0056,0.006 -0.0035,0.0166 0,0.0236 0.005,0.01 0.01744,0.0144 0.02363,0.0236 0.0098,0.0147 0.01117,0.0348 0.02363,0.0472 0.0056,0.006 0.01805,-0.006 0.02363,0 0.0056,0.006 -0.0056,0.0181 0,0.0236 0.0056,0.006 0.01804,-0.006 0.02363,0 0.01246,0.0125 0.01117,0.0348 0.02363,0.0473 0.0056,0.006 0.01805,-0.006 0.02363,0 0.0056,0.006 -0.0056,0.0181 0,0.0236 0.0056,0.006 0.01805,-0.006 0.02363,0 0.0056,0.006 -0.0035,0.0166 0,0.0236 0.0024,0.005 0.08997,0.0922 0.09449,0.0945 0.007,0.004 0.01807,-0.006 0.02363,0 0.0056,0.006 -0.0056,0.0181 0,0.0236 0.0056,0.006 0.01805,-0.006 0.02363,0 0.0056,0.006 -0.0035,0.0166 0,0.0236 0.005,0.01 0.01574,0.0157 0.02363,0.0236 0.0079,0.008 0.01365,0.0187 0.02363,0.0236 0.01408,0.007 0.03611,-0.0111 0.04725,0 0.01246,0.0125 0.01116,0.0348 0.02363,0.0472 0.0056,0.006 0.01659,-0.004 0.02363,0 0.01992,0.01 0.02733,0.0373 0.04725,0.0473 0.007,0.004 0.01659,-0.004 0.02363,0 0.0099,0.005 0.01365,0.0186 0.02363,0.0236 0.007,0.004 0.01574,0 0.02363,0 0.0079,0.008 0.01365,0.0187 0.02363,0.0236 0.007,0.004 0.01807,-0.006 0.02363,0 0.0056,0.006 -0.0056,0.0181 0,0.0236 0.0056,0.006 0.01804,-0.006 0.02363,0 0.0056,0.006 -0.0056,0.018 0,0.0236 0.0056,0.006 0.01804,-0.006 0.02363,0 0.04888,0.0489 -0.07469,-0.002 0.02363,0.0472 0.007,0.004 0.01659,-0.003 0.02363,0 0.0099,0.005 0.01365,0.0187 0.02363,0.0236 0.007,0.003 0.01659,-0.004 0.02363,0 0.02835,0.0142 0.04252,0.0567 0.07087,0.0709 0.007,0.003 0.01659,-0.004 0.02363,0 0.01992,0.01 0.02733,0.0373 0.04725,0.0472 0.007,0.004 0.01805,-0.006 0.02363,0 0.0056,0.006 -0.007,0.0201 0,0.0236 0.01408,0.007 0.03231,-0.005 0.04725,0 0.02114,0.007 0.02733,0.0373 0.04725,0.0473 0.01408,0.007 0.03316,-0.007 0.04725,0 0.108114,0.0541 -0.100245,-0.01 0.07087,0.0473 0.01495,0.005 0.03611,-0.0111 0.04725,0 0.0056,0.006 -0.0056,0.018 0,0.0236 0.0118,0.0118 0.05906,-0.0118 0.07087,0 0.0315,0.0315 -0.05011,0.0227 0.02363,0.0472 0.01495,0.005 0.0315,0 0.04725,0 0.0079,0 0.01659,-0.004 0.02363,0 0.01992,0.01 0.02611,0.0402 0.04725,0.0473 0.01495,0.005 0.03197,-0.004 0.04725,0 0.03417,0.009 0.06108,0.0361 0.09449,0.0472 0.01495,0.005 0.03316,-0.007 0.04725,0 0.0099,0.005 0.01365,0.0187 0.02363,0.0236 0.01281,0.006 0.08803,-0.006 0.09449,0 0.0056,0.006 -0.0056,0.0181 0,0.0236 0.0056,0.006 0.01614,-0.002 0.02363,0 0.01669,0.006 0.03016,0.0193 0.04725,0.0236 7.94e-4,1.9e-4 0.07074,-1.3e-4 0.07087,0 0.0056,0.006 -0.0056,0.018 0,0.0236 0.01114,0.0111 0.03611,-0.0111 0.04725,0 0.0056,0.006 -0.0056,0.0181 0,0.0236 0.0056,0.006 0.01574,0 0.02363,0 0.0213,0 0.103251,-0.005 0.118118,0 0.01669,0.006 0.03054,0.018 0.04725,0.0236 0.0075,0.002 0.01659,-0.004 0.02363,0 0.0099,0.005 0.01365,0.0187 0.02363,0.0236 0.007,0.004 0.01574,0 0.02363,0 0.01574,0 0.0315,0 0.04725,0 0.03937,0 0.07875,0 0.118118,0 0.01574,0 0.0315,0 0.04725,0 0.0079,0 0.01659,-0.004 0.02363,0 0.0099,0.005 0.01365,0.0187 0.02363,0.0236 0.01008,0.005 0.108781,0 0.118118,0 0.07087,0 0.141743,0 0.212612,0 0.07087,0 0.141742,0 0.212613,0 0.01574,0 0.0315,0 0.04725,0 0.0079,0 0.01614,0.002 0.02363,0 0.0167,-0.006 0.03017,-0.0193 0.04725,-0.0236 0.03056,-0.008 0.06461,0.01 0.0945,0 0.01056,-0.004 0.01328,-0.0195 0.02363,-0.0236 0.03015,-0.0121 0.06435,-0.0116 0.0945,-0.0236 0.01035,-0.004 0.01307,-0.0201 0.02363,-0.0236 0.0108,-0.004 0.08398,0.005 0.09449,0 0.01,-0.005 0.01365,-0.0187 0.02363,-0.0236 0.01408,-0.007 0.03316,0.007 0.04725,0 0.0099,-0.005 0.01365,-0.0187 0.02363,-0.0236 0.01408,-0.007 0.03611,0.0111 0.04725,0 0.04888,-0.0489 -0.07469,0.002 0.02363,-0.0472 0.01408,-0.007 0.03316,0.007 0.04725,0 0.0099,-0.005 0.01365,-0.0187 0.02363,-0.0236 0.007,-0.004 0.01659,0.004 0.02363,0 0.0099,-0.005 0.01365,-0.0186 0.02363,-0.0236 0.007,-0.004 0.01805,0.006 0.02363,0 0.0056,-0.006 -0.0056,-0.0181 0,-0.0236 0.0056,-0.006 0.01659,0.004 0.02363,0 0.01,-0.005 0.01307,-0.0201 0.02363,-0.0236 0.01495,-0.005 0.03316,0.007 0.04725,0 0.007,-0.004 -0.0056,-0.018 0,-0.0236 0.0056,-0.006 0.01659,0.004 0.02363,0 0.0099,-0.005 0.01365,-0.0186 0.02363,-0.0236 0.007,-0.004 0.01617,0.002 0.02363,0 0.0167,-0.006 0.03054,-0.0181 0.04725,-0.0236 0.0075,-0.002 0.01805,0.006 0.02363,0 0.04888,-0.0489 -0.07469,0.002 0.02363,-0.0472 0.01408,-0.007 0.03316,0.007 0.04725,0 0.01,-0.005 0.01365,-0.0187 0.02363,-0.0236 0.007,-0.004 0.01659,0.003 0.02363,0 0.01992,-0.01 0.02733,-0.0373 0.04725,-0.0473 0.007,-0.004 0.01804,0.006 0.02363,0 0.0056,-0.006 -0.0056,-0.0181 0,-0.0236 0.01114,-0.0111 0.03316,0.007 0.04725,0 0.01,-0.005 0.01365,-0.0187 0.02363,-0.0236 0.007,-0.004 0.01659,0.003 0.02363,0 0.02326,-0.0116 0.07125,-0.0829 0.0945,-0.0945 0.007,-0.004 0.01659,0.004 0.02363,0 0.01992,-0.01 0.02872,-0.0349 0.04725,-0.0473 0.01466,-0.01 0.03054,-0.018 0.04725,-0.0236 0.0075,-0.002 0.01707,0.004 0.02363,0 0.02726,-0.0182 0.04361,-0.0527 0.07087,-0.0709 0.01466,-0.01 0.0326,-0.0139 0.04725,-0.0236 0.01852,-0.0124 0.0315,-0.0315 0.04725,-0.0473 0.0315,-0.0315 0.063,-0.063 0.09449,-0.0945 0.02363,-0.0236 0.05593,-0.041 0.07087,-0.0709 0,-0.13387 -0.01574,-0.008 0.02363,-0.0473 0.01114,-0.0111 -0.01114,-0.0361 0,-0.0472 0.0056,-0.006 0.01804,0.006 0.02363,0 0.0056,-0.006 -0.0056,-0.018 0,-0.0236 0.0056,-0.006 0.01805,0.006 0.02363,0 0.0056,-0.006 -0.0035,-0.0166 0,-0.0236 0.005,-0.01 0.01865,-0.0136 0.02363,-0.0236 0.0035,-0.007 -0.0035,-0.0166 0,-0.0236 0.0055,-0.0109 0.0806,-0.0806 0.0945,-0.0945 0.0079,-0.008 0.01865,-0.0137 0.02363,-0.0236 0.0035,-0.007 -0.0035,-0.0166 0,-0.0236 0.005,-0.01 0.01865,-0.0136 0.02363,-0.0236 0.0035,-0.007 -0.0056,-0.0181 0,-0.0236 0.0056,-0.006 0.01659,0.004 0.02363,0 0.01,-0.005 0.01574,-0.0157 0.02363,-0.0236 0.0079,-0.008 0.01865,-0.0137 0.02363,-0.0236 0.0035,-0.007 -0.0056,-0.018 0,-0.0236 0.0056,-0.006 0.01659,0.004 0.02363,0 0.0063,-0.003 0.06774,-0.0646 0.07087,-0.0709 0.0035,-0.007 -0.0056,-0.018 0,-0.0236 0.01114,-0.0111 0.03316,0.007 0.04725,0 0.02093,-0.0105 0.04937,-0.0565 0.07087,-0.0709 0.01466,-0.01 0.0348,-0.0112 0.04725,-0.0236 0.0056,-0.006 -0.0035,-0.0166 0,-0.0236 0.005,-0.01 0.01574,-0.0157 0.02363,-0.0236 0.0079,-0.008 0.01437,-0.0174 0.02363,-0.0236 0.01466,-0.01 0.0348,-0.0112 0.04725,-0.0236 0.0056,-0.006 -0.0056,-0.018 0,-0.0236 0.0056,-0.006 0.01574,0 0.02363,0 0,-0.008 -0.0035,-0.0166 0,-0.0236 0.03629,-0.0726 0.01334,0.0391 0.07087,-0.0472 0.0087,-0.0131 -0.007,-0.0332 0,-0.0473 0.0035,-0.007 0.01807,0.006 0.02363,0 0.01114,-0.0111 -0.007,-0.0332 0,-0.0472 0.0181,-0.0362 0.0421,-0.0185 0.07087,-0.0473 0.0118,-0.0118 -0.01183,-0.0591 0,-0.0709 0.0056,-0.006 0.01804,0.006 0.02363,0 0.0056,-0.006 -0.0035,-0.0166 0,-0.0236 0.005,-0.01 0.01865,-0.0136 0.02363,-0.0236 0.007,-0.0141 -0.01114,-0.0361 0,-0.0473 0.0056,-0.006 0.01805,0.006 0.02363,0 0.0056,-0.006 0,-0.0157 0,-0.0236 0,-0.008 0,-0.0157 0,-0.0236 0,-0.10237 0,-0.20474 0,-0.30711 0,-0.0168 -0.003,-0.13563 0,-0.14174 0.02919,-0.0584 0.02363,0.008 0.02363,-0.0473 0,-0.0551 0,-0.11024 0,-0.16536 0,-0.0157 -0.005,-0.0323 0,-0.0473 0.0035,-0.0106 0.02011,-0.0131 0.02363,-0.0236 0.005,-0.0149 -0.0031,-0.0318 0,-0.0473 0.0049,-0.0244 0.01873,-0.0464 0.02363,-0.0709 0.0062,-0.0309 0,-0.063 0,-0.0945 0,-0.0551 0,-0.11025 0,-0.16537 0,-0.0236 0,-0.0473 0,-0.0709 0,-0.008 -0.0056,-0.018 0,-0.0236 0.0056,-0.006 0.02011,0.007 0.02363,0 0.007,-0.0141 0,-0.0315 0,-0.0473 0,-0.0473 0,-0.0945 0,-0.14174 0,-0.0866 0,-0.17324 0,-0.25986 0,-0.0124 0.0031,-0.0883 0,-0.0945 -0.05377,-0.0538 -0.0062,0.005 -0.02363,-0.0473 -0.0056,-0.0167 -0.01805,-0.0305 -0.02363,-0.0473 -0.0024,-0.007 0.0035,-0.0166 0,-0.0236 -0.005,-0.01 -0.02011,-0.0131 -0.02363,-0.0236 0,-0.10754 0.01114,-10e-4 -0.02363,-0.0709 -0.0035,-0.007 0.0056,-0.018 0,-0.0236 -0.0056,-0.006 -0.01805,0.006 -0.02363,0 -0.01114,-0.0111 0.007,-0.0332 0,-0.0473 -0.005,-0.01 -0.01865,-0.0136 -0.02363,-0.0236 -0.0035,-0.007 0.0056,-0.0181 0,-0.0236 -0.0056,-0.006 -0.01804,0.006 -0.02363,0 -0.01246,-0.0125 -0.01805,-0.0305 -0.02363,-0.0473 -0.005,-0.0149 0.01114,-0.0361 0,-0.0473 -0.0056,-0.006 -0.01805,0.006 -0.02363,0 -0.04888,-0.0489 0.07469,0.002 -0.02363,-0.0472 -0.007,-0.004 -0.02011,0.007 -0.02363,0 0,-0.13387 0.01574,-0.008 -0.02363,-0.0473 -0.01114,-0.0111 0.01114,-0.0361 0,-0.0472 -0.0056,-0.006 -0.01659,0.003 -0.02363,0 -0.0099,-0.005 -0.01574,-0.0157 -0.02363,-0.0236 -0.0079,-0.008 -0.01865,-0.0136 -0.02363,-0.0236 -0.0035,-0.007 0.0035,-0.0166 0,-0.0236 -0.04916,-0.0983 0.0016,0.0253 -0.04725,-0.0236 -0.0056,-0.006 0.0035,-0.0166 0,-0.0236 -0.07835,-0.0784 0.01114,0.0223 -0.02363,-0.0473 -0.0099,-0.0199 -0.03729,-0.0273 -0.04725,-0.0473 -0.0035,-0.007 0,-0.0157 0,-0.0236 -0.0079,-0.0157 -0.01386,-0.0326 -0.02363,-0.0472 -0.0062,-0.009 -0.01865,-0.0137 -0.02363,-0.0236 -0.007,-0.0141 0.007,-0.0332 0,-0.0472 -0.005,-0.01 -0.01865,-0.0136 -0.02363,-0.0236 -0.0035,-0.007 0,-0.0157 0,-0.0236 0,-0.0157 0.005,-0.0323 0,-0.0472 -0.007,-0.0211 -0.04021,-0.0261 -0.04725,-0.0473 -0.005,-0.0149 0.005,-0.0323 0,-0.0473 -0.0035,-0.0106 -0.01865,-0.0136 -0.02363,-0.0236 -0.0035,-0.007 0.0035,-0.0166 0,-0.0236 -0.05377,-0.0538 -0.0062,0.005 -0.02363,-0.0473 -0.05704,-0.17112 0.0068,0.0373 -0.04725,-0.0709 -0.007,-0.0141 0.005,-0.0323 0,-0.0472 -0.01114,-0.0334 -0.03611,-0.0611 -0.04725,-0.0945 -0.005,-0.0149 0.005,-0.0323 0,-0.0472 -0.0056,-0.0167 -0.01805,-0.0305 -0.02363,-0.0473 -0.005,-0.0149 0.007,-0.0332 0,-0.0473 -0.005,-0.01 -0.01865,-0.0136 -0.02363,-0.0236 -0.0035,-0.007 0.0035,-0.0166 0,-0.0236 -0.005,-0.01 -0.01865,-0.0136 -0.02363,-0.0236 -0.007,-0.0141 0.007,-0.0332 0,-0.0473 -0.005,-0.01 -0.01865,-0.0136 -0.02363,-0.0236 -0.0047,-0.009 0.0048,-0.066 0,-0.0709 -0.0056,-0.006 -0.01805,0.006 -0.02363,0 -0.0118,-0.0118 0.0118,-0.0591 0,-0.0709 -0.04888,-0.0489 0.0019,0.0747 -0.04725,-0.0236 -0.0094,-0.0189 0.0094,-0.052 0,-0.0709 -0.005,-0.01 -0.01865,-0.0136 -0.02363,-0.0236 -0.0035,-0.007 0,-0.0157 0,-0.0236 -0.0079,-0.008 -0.01865,-0.0136 -0.02363,-0.0236 -0.0035,-0.007 0.0035,-0.0166 0,-0.0236 -0.005,-0.01 -0.02011,-0.0131 -0.02363,-0.0236 -0.005,-0.0149 0.005,-0.0323 0,-0.0473 -0.0035,-0.0106 -0.01865,-0.0136 -0.02363,-0.0236 -0.0035,-0.007 0.0035,-0.0166 0,-0.0236 -0.005,-0.01 -0.01865,-0.0137 -0.02363,-0.0236 -0.007,-0.0141 0.01114,-0.0361 0,-0.0472 -0.0056,-0.006 -0.01804,0.006 -0.02363,0 -0.0056,-0.006 0.0035,-0.0166 0,-0.0236 -0.005,-0.01 -0.01574,-0.0157 -0.02363,-0.0236 0,-0.0157 0.005,-0.0323 0,-0.0472 -0.0035,-0.0106 -0.02011,-0.0131 -0.02363,-0.0236 -0.005,-0.015 0,-0.0315 0,-0.0473 0,-0.008 0.0035,-0.0166 0,-0.0236 -0.005,-0.01 -0.01865,-0.0136 -0.02363,-0.0236 -0.0035,-0.007 0.0024,-0.0161 0,-0.0236 -0.0056,-0.0167 -0.01934,-0.0302 -0.02363,-0.0472 -0.0038,-0.0153 0.005,-0.0323 0,-0.0473 -0.0035,-0.0106 -0.01865,-0.0136 -0.02363,-0.0236 -0.007,-0.0141 0.007,-0.0332 0,-0.0473 -0.005,-0.01 -0.02011,-0.013 -0.02363,-0.0236 -0.005,-0.0149 0.0038,-0.032 0,-0.0473 -0.0043,-0.0171 -0.01804,-0.0305 -0.02363,-0.0472 -0.0024,-0.008 0.0035,-0.0166 0,-0.0236 -0.005,-0.01 -0.01865,-0.0137 -0.02363,-0.0236 -0.0035,-0.007 0.0024,-0.0161 0,-0.0236 -0.0056,-0.0167 -0.01805,-0.0305 -0.02363,-0.0472 -0.0031,-0.009 0.0037,-0.0672 0,-0.0709 -0.0056,-0.006 -0.01804,0.006 -0.02363,0 -0.0056,-0.006 0,-0.0157 0,-0.0236 0,-0.0157 0.007,-0.0332 0,-0.0472 -0.0035,-0.007 -0.01804,0.006 -0.02363,0 -0.0037,-0.004 0.0031,-0.0617 0,-0.0709 -0.0056,-0.0167 -0.01805,-0.0305 -0.02363,-0.0473 -0.01183,-0.0354 0.02363,-0.0236 0,-0.0709 -0.0035,-0.007 -0.01805,0.006 -0.02363,0 -0.01114,-0.0111 0.005,-0.0323 0,-0.0473 -0.007,-0.0208 -0.05841,-0.12305 -0.07087,-0.14174 -0.0062,-0.009 -0.01744,-0.0144 -0.02363,-0.0236 -0.04476,0.003 -0.01574,-0.0551 -0.02363,-0.0709 -0.005,-0.01 -0.01574,-0.0157 -0.02363,-0.0236 -0.0079,-0.008 -0.01365,-0.0187 -0.02363,-0.0236 -0.007,-0.004 -0.01805,0.006 -0.02363,0 -0.0056,-0.006 0.0056,-0.0181 0,-0.0236 -0.0056,-0.006 -0.01804,0.006 -0.02363,0 -0.04888,-0.0489 0.07469,0.002 -0.02363,-0.0472 -0.007,-0.004 -0.01659,0.004 -0.02363,0 -0.0099,-0.005 -0.01574,-0.0157 -0.02363,-0.0236 -0.01855,-0.0186 -0.103068,-0.1106 -0.118118,-0.11812 -0.007,-0.004 -0.01804,0.006 -0.02363,0 -0.0056,-0.006 0.0056,-0.018 0,-0.0236 -0.0056,-0.006 -0.01804,0.006 -0.02363,0 -0.0056,-0.006 0.0024,-0.0161 0,-0.0236 -0.0056,-0.0167 -0.01117,-0.0348 -0.02363,-0.04725 -0.0056,-0.0056 -0.02011,0.007 -0.02363,0 -0.007,-0.01408 0.005,-0.03231 0,-0.04725 -0.0035,-0.01056 -0.01744,-0.01437 -0.02363,-0.02363 -0.0098,-0.01466 -0.01574,-0.0315 -0.02363,-0.04725 -0.0079,-0.01574 -0.01934,-0.03016 -0.02363,-0.04725 -0.0038,-0.01527 0.007,-0.03316 0,-0.04725 -0.0035,-0.007 -0.01804,0.0056 -0.02363,0 -0.0056,-0.0056 0.0056,-0.01805 0,-0.02363 -0.0056,-0.0056 -0.01805,0.0056 -0.02363,0 -0.01114,-0.01114 0.007,-0.03316 0,-0.04725 -0.005,-0.0099 -0.01865,-0.01365 -0.02363,-0.02363 -0.007,-0.01408 0.01114,-0.03611 0,-0.04725 -0.04888,-0.04888 0.0019,0.07469 -0.04725,-0.02363 -0.0035,-0.007 0.0024,-0.01617 0,-0.02363 -0.0056,-0.01669 -0.01574,-0.0315 -0.02363,-0.04725 -0.0079,-0.01574 -0.01386,-0.03259 -0.02363,-0.04725 -0.01236,-0.01852 -0.03728,-0.02733 -0.04725,-0.04725 -0.0035,-0.007 0.0035,-0.01659 0,-0.02363 -0.0099,-0.01992 -0.03729,-0.02733 -0.04725,-0.04725 -0.007,-0.01408 0.01114,-0.03611 0,-0.04725 -0.0056,-0.0056 -0.02011,0.007 -0.02363,0 -0.007,-0.01408 0.007,-0.03316 0,-0.04725 -0.02445,0 -0.03265,0.0056 -0.04725,-0.02363 -0.0035,-0.007 0.0035,-0.01659 0,-0.02363 -0.005,-0.0099 -0.01865,-0.01365 -0.02363,-0.02363 -0.0035,-0.007 0,-0.01574 0,-0.02363 0,-0.03516 0.0035,-0.03015 -0.02363,-0.07087 -0.01236,-0.01852 -0.03728,-0.02733 -0.04725,-0.04725 -0.0035,-0.007 0.0035,-0.01659 0,-0.02363 -0.005,-0.0099 -0.01865,-0.01365 -0.02363,-0.02363 -0.0035,-0.007 0.0035,-0.01659 0,-0.02363 -0.01,-0.01992 -0.04021,-0.02611 -0.04725,-0.04725 -0.005,-0.01495 0.007,-0.03316 0,-0.04725 -0.0035,-0.007 -0.01805,0.0056 -0.02363,0 -0.0056,-0.0056 0.0035,-0.01659 0,-0.02363 -0.005,-0.0099 -0.01865,-0.01365 -0.02363,-0.02363 -0.0035,-0.007 0.0056,-0.01804 0,-0.02363 -0.0056,-0.0056 -0.01805,0.0056 -0.02363,0 -0.0056,-0.0056 0.0056,-0.01805 0,-0.02363 -0.0056,-0.0056 -0.01804,0.0056 -0.02363,0 -0.0056,-0.0056 0.0035,-0.01659 0,-0.02363 -0.005,-0.0099 -0.01574,-0.01574 -0.02363,-0.02363 -0.0079,-0.0079 -0.01365,-0.01865 -0.02363,-0.02363 -0.007,-0.0035 -0.01805,0.0056 -0.02363,0 -0.0056,-0.0056 0.0056,-0.01805 0,-0.02363 -0.0056,-0.0056 -0.01805,0.0056 -0.02363,0 -0.0056,-0.0056 0.0035,-0.01659 0,-0.02363 -0.005,-0.0099 -0.01574,-0.01574 -0.02363,-0.02363 -0.0079,-0.0079 -0.01365,-0.01865 -0.02363,-0.02363 -0.007,-0.0035 -0.01805,0.0056 -0.02363,0 -0.0056,-0.0056 0.0035,-0.01659 0,-0.02363 -0.04916,-0.09831 0.0016,0.02524 -0.04725,-0.02363 -0.0056,-0.0056 0.0044,-0.01707 0,-0.02363 -0.01236,-0.01852 -0.0315,-0.0315 -0.04725,-0.04725 -0.0079,-0.0079 -0.02011,-0.01307 -0.02363,-0.02363 -3.5e-5,-1.06e-4 2.4e-5,-0.07085 0,-0.07087 -0.0056,-0.0056 -0.01805,0.0056 -0.02363,0 -0.0056,-0.0056 0.0035,-0.01659 0,-0.02363 -0.005,-0.0099 -0.01865,-0.01365 -0.02363,-0.02363 -0.0035,-0.007 0.0024,-0.01614 0,-0.02363 -0.0056,-0.01669 -0.01574,-0.0315 -0.02363,-0.04725 -0.0079,-0.01574 -0.01116,-0.0348 -0.02363,-0.04725 -0.0056,-0.0056 -0.01805,0.0056 -0.02363,0 -0.0056,-0.0056 0.0056,-0.01805 0,-0.02363 -0.0056,-0.0056 -0.01804,0.0056 -0.02363,0 -0.0056,-0.0056 0.0035,-0.01659 0,-0.02363 -0.005,-0.0099 -0.01865,-0.01365 -0.02363,-0.02363 -0.0035,-0.007 0.0035,-0.01659 0,-0.02363 -0.04916,-0.09831 0.0016,0.02527 -0.04725,-0.02363 -0.01114,-0.01114 0.007,-0.03316 0,-0.04725 -0.005,-0.0099 -0.01865,-0.01365 -0.02363,-0.02363 -0.0035,-0.007 0.0035,-0.01659 0,-0.02363 -0.04916,-0.09831 0.0016,0.02527 -0.04725,-0.02363 -0.0056,-0.0056 0.0035,-0.01659 0,-0.02363 -0.005,-0.0099 -0.01865,-0.01365 -0.02363,-0.02363 -0.007,-0.01408 0.01114,-0.03611 0,-0.04725 -0.0056,-0.0056 -0.01804,0.0056 -0.02363,0 -0.0056,-0.0056 0.0035,-0.01659 0,-0.02363 -0.005,-0.0099 -0.01865,-0.01365 -0.02363,-0.02363 -0.0035,-0.007 0.0035,-0.01659 0,-0.02363 -0.005,-0.0099 -0.02011,-0.01307 -0.02363,-0.02363 -0.005,-0.01495 0.007,-0.03316 0,-0.04725 -0.0035,-0.007 -0.01804,0.0056 -0.02363,0 -0.0056,-0.0056 0.0035,-0.01659 0,-0.02363 -0.005,-0.0099 -0.01865,-0.01365 -0.02363,-0.02363 -0.007,-0.01408 0.007,-0.03316 0,-0.04725 -0.005,-0.0099 -0.01744,-0.01437 -0.02363,-0.02363 -0.07956,-0.11934 -1.79e-4,-5.29e-4 -0.02363,-0.07087 -0.0056,-0.01669 -0.01804,-0.03054 -0.02363,-0.04725 -0.0114,-0.03419 0.02933,-0.134895 0.02363,-0.14174 -0.03188,-0.03826 -0.09449,-0.0315 -0.141742,-0.04725"
       id="path3772"
       inkscape:connector-curvature="0" />
    <path
       style="fill:#ffffff;stroke-width:0.01670435"
       d="m 45.170984,108.63101 c -0.0735,-0.006 -0.16746,-0.0203 -0.208804,-0.0309 -0.04134,-0.0106 -0.120272,-0.0302 -0.175395,-0.0436 -0.232288,-0.0562 -0.435343,-0.12856 -0.595278,-0.21226 -0.03341,-0.0175 -0.06909,-0.0318 -0.0793,-0.0318 -0.02703,0 -0.235847,-0.1002 -0.293288,-0.14073 -0.07246,-0.0511 -0.09221,-0.0666 -0.192217,-0.15057 -0.05005,-0.042 -0.123343,-0.0921 -0.162867,-0.1112 -0.03952,-0.0191 -0.07186,-0.0407 -0.07186,-0.048 0,-0.007 -0.02254,-0.0225 -0.05011,-0.0339 -0.02756,-0.0114 -0.05011,-0.0273 -0.05011,-0.0352 0,-0.008 -0.03007,-0.0335 -0.06682,-0.0566 -0.03675,-0.0232 -0.06682,-0.0505 -0.06682,-0.0607 0,-0.0102 -0.0451,-0.0668 -0.100227,-0.12568 -0.05512,-0.0589 -0.100224,-0.11752 -0.100224,-0.1302 0,-0.0127 -0.0058,-0.0256 -0.01281,-0.0286 -0.02453,-0.0107 -0.136562,-0.2154 -0.160862,-0.29394 -0.02991,-0.0967 -0.05902,-0.17975 -0.08625,-0.24617 -0.0113,-0.0276 -0.02585,-0.0764 -0.03233,-0.10858 -0.0065,-0.0322 -0.03413,-0.12236 -0.06145,-0.20045 -0.05908,-0.16887 -0.111863,-0.33686 -0.131212,-0.41761 -0.0077,-0.0322 -0.0236,-0.0885 -0.0353,-0.12528 -0.01524,-0.0478 -0.02278,-0.24463 -0.02657,-0.69194 l -0.0053,-0.62512 0.04474,-0.18504 c 0.02461,-0.10177 0.05064,-0.18896 0.05786,-0.19376 0.0072,-0.005 0.04288,-0.0724 0.07924,-0.15034 0.03636,-0.0779 0.08558,-0.16258 0.109384,-0.1882 0.02381,-0.0256 0.06404,-0.0892 0.08941,-0.1412 0.02537,-0.052 0.08427,-0.13632 0.130892,-0.18728 0.04662,-0.051 0.09795,-0.12625 0.114078,-0.1673 0.02992,-0.0762 0.204157,-0.35566 0.227309,-0.36462 0.007,-0.003 0.06436,-0.0449 0.127404,-0.0937 0.06305,-0.0488 0.139454,-0.10149 0.169802,-0.11705 0.03035,-0.0156 0.06892,-0.041 0.08571,-0.0566 0.15698,-0.14572 0.205586,-0.19649 0.226094,-0.23615 0.01312,-0.0254 0.04292,-0.0586 0.06621,-0.0739 0.02328,-0.0153 0.04704,-0.0465 0.05278,-0.0693 0.0057,-0.0229 0.0155,-0.0416 0.02172,-0.0416 0.0062,0 0.02447,-0.0223 0.0406,-0.0496 0.01611,-0.0273 0.05532,-0.0772 0.08713,-0.11092 0.0318,-0.0337 0.05782,-0.071 0.05782,-0.0829 0,-0.0119 0.02931,-0.0381 0.06513,-0.0583 0.03583,-0.0201 0.07484,-0.0547 0.0867,-0.0769 0.01185,-0.0221 0.06147,-0.0808 0.11026,-0.13041 0.04879,-0.0496 0.0887,-0.0949 0.0887,-0.10068 0,-0.006 0.01693,-0.0345 0.03763,-0.0637 0.05447,-0.077 0.07709,-0.11461 0.09721,-0.16175 0.0098,-0.023 0.04737,-0.0809 0.08348,-0.12874 0.03611,-0.0478 0.06565,-0.0948 0.06565,-0.1044 0,-0.01 0.0059,-0.0174 0.01318,-0.0174 0.02204,0 0.116546,-0.17059 0.1388,-0.25057 0.01151,-0.0413 0.029,-0.0857 0.03887,-0.0985 0.02671,-0.0347 0.04358,-0.33154 0.05221,-0.91851 0.0079,-0.536066 0.01445,-0.593195 0.08248,-0.719004 0.01278,-0.02363 0.0547,-0.140687 0.09314,-0.260123 0.03845,-0.119438 0.07545,-0.223255 0.08221,-0.230709 0.0068,-0.0075 0.05066,0.0621 0.09753,0.154562 0.04687,0.09246 0.09322,0.17749 0.102984,0.18895 0.0098,0.01146 0.04189,0.05841 0.07138,0.104351 0.0295,0.04594 0.0693,0.09943 0.08845,0.11888 0.01916,0.01945 0.04798,0.07719 0.06406,0.128318 0.02463,0.07828 0.05552,0.120115 0.195662,0.264946 0.102439,0.105859 0.191958,0.217079 0.232839,0.289289 0.03653,0.0645 0.07352,0.12858 0.0822,0.14237 0.0087,0.0138 0.03097,0.0589 0.04952,0.10022 0.03765,0.0839 0.04651,0.0986 0.147326,0.24521 0.03904,0.0568 0.07099,0.11359 0.07099,0.12626 0,0.0127 0.01114,0.0376 0.02477,0.0555 0.02858,0.0374 0.15898,0.30312 0.15898,0.32394 0,0.008 0.01127,0.0183 0.02506,0.0236 0.01378,0.005 0.02506,0.02 0.02506,0.0326 0,0.0267 0.05539,0.0949 0.07713,0.095 0.01966,1e-4 0.210367,0.19347 0.263506,0.26719 0.07291,0.10115 0.09138,0.14233 0.128286,0.28604 0.01976,0.077 0.08002,0.27424 0.133911,0.43841 0.05389,0.16417 0.102865,0.32578 0.108834,0.35914 0.006,0.0334 0.02045,0.0719 0.03219,0.0857 0.01175,0.0138 0.04919,0.0965 0.08323,0.18374 0.03404,0.0873 0.07899,0.20004 0.09989,0.25057 0.06648,0.16072 0.106643,0.27332 0.126706,0.35525 0.01072,0.0438 0.02609,0.0837 0.03415,0.0887 0.0081,0.005 0.01466,0.0232 0.01466,0.0405 0,0.0173 0.03327,0.10215 0.07394,0.18861 0.04067,0.0864 0.07904,0.18436 0.08527,0.21756 0.0062,0.0332 0.0218,0.0691 0.03463,0.0797 0.01283,0.0106 0.02331,0.0284 0.02331,0.0395 0,0.0219 0.0959,0.17423 0.126735,0.20127 0.03366,0.0295 0.157239,0.2029 0.157239,0.2206 0,0.009 0.01482,0.0359 0.03291,0.0589 0.0181,0.023 0.05983,0.10859 0.09273,0.19017 l 0.05982,0.14834 -0.0086,0.20881 c -0.01648,0.40122 -0.03718,0.66018 -0.05643,0.70576 -0.01138,0.0269 -0.02339,0.18947 -0.02905,0.39256 -0.0087,0.31173 -0.01334,0.35412 -0.04635,0.42128 -0.02019,0.0411 -0.04986,0.0895 -0.06593,0.10755 -0.01609,0.0181 -0.02923,0.0428 -0.02923,0.0549 0,0.0263 -0.2735,0.30581 -0.299286,0.30581 -0.05391,0 -0.445331,0.46274 -0.476242,0.56303 -0.01598,0.0519 -0.227214,0.24313 -0.336844,0.30501 -0.05049,0.0285 -0.115146,0.0741 -0.143666,0.10137 -0.02852,0.0273 -0.06014,0.0496 -0.07026,0.0496 -0.01013,3e-5 -0.05223,0.0226 -0.09357,0.05 -0.04134,0.0275 -0.08442,0.05 -0.09573,0.05 -0.0113,4e-5 -0.06168,0.0264 -0.111953,0.0585 -0.05027,0.0322 -0.09566,0.0585 -0.100881,0.0585 -0.0052,0 -0.03752,0.0176 -0.0718,0.0392 -0.03427,0.0216 -0.08989,0.0483 -0.123613,0.0593 -0.03372,0.0111 -0.06986,0.0304 -0.08031,0.043 -0.01045,0.0126 -0.05051,0.0278 -0.08903,0.0339 -0.03852,0.006 -0.111377,0.0268 -0.161907,0.0461 -0.08089,0.0309 -0.131826,0.0355 -0.425961,0.0384 -0.183747,0.002 -0.394223,-0.002 -0.467722,-0.008 z"
       id="path3774"
       inkscape:connector-curvature="0" />
    <path
       style="fill:none;stroke:#000000;stroke-width:0.26458332px;stroke-linecap:butt;stroke-linejoin:miter;stroke-opacity:1"
       d="m 47.645796,106.59445 -0.04123,0.15455"
       id="path3776"
       inkscape:connector-curvature="0" />
    <path
       style="fill:none;stroke:#000000;stroke-width:0.26458332px;stroke-linecap:butt;stroke-linejoin:miter;stroke-opacity:1"
       d="m 47.645796,106.59445 c 0.0039,0.004 0.01005,0.007 0.0118,0.0118 7.93e-4,0.003 -0.0047,0.003 -0.0059,0.006 -7.93e-4,0.002 0.0013,0.005 0,0.006 -0.0013,10e-4 -0.0045,-0.001 -0.0059,0 -0.0013,10e-4 7.94e-4,0.004 0,0.006 -0.0035,0.007 -0.01418,0.0106 -0.01773,0.0177 -0.0019,0.004 0.0019,0.008 0,0.0118 -0.0024,0.005 -0.0093,0.007 -0.01183,0.0118 -0.0019,0.003 0.0019,0.008 0,0.0118 -0.0013,0.003 -0.01167,0.0101 -0.0118,0.0118 -0.0019,0.0199 7.4e-5,0.04 1.11e-4,0.0601 l 0.230238,-0.27264"
       id="path3778"
       inkscape:connector-curvature="0" />
    <path
       style="fill:none;stroke:#000000;stroke-width:0.26458332px;stroke-linecap:butt;stroke-linejoin:miter;stroke-opacity:1"
       d="m 48.555301,104.94671 -0.03543,0.32482"
       id="path3780"
       inkscape:connector-curvature="0" />
    <path
       style="fill:none;stroke:#000000;stroke-width:0.26458332px;stroke-linecap:butt;stroke-linejoin:miter;stroke-opacity:1"
       d="m 48.147951,103.0162 0.212651,0.33078"
       id="path3782"
       inkscape:connector-curvature="0" />
    <path
       style="fill:none;stroke:#000000;stroke-width:0.26458332px;stroke-linecap:butt;stroke-linejoin:miter;stroke-opacity:1"
       d="m 47.858063,102.38083 0.09605,0.1921"
       id="path3784"
       inkscape:connector-curvature="0" />
    <path
       style="fill:none;stroke:#000000;stroke-width:0.26458332px;stroke-linecap:butt;stroke-linejoin:miter;stroke-opacity:1"
       d="m 48.104454,102.93625 0.114379,0.19808"
       id="path3786"
       inkscape:connector-curvature="0" />
    <path
       style="fill:none;stroke:#000000;stroke-width:0.26458332px;stroke-linecap:butt;stroke-linejoin:miter;stroke-opacity:1"
       d="m 46.18763,107.63853 0.588827,-0.24639"
       id="path3788"
       inkscape:connector-curvature="0" />
    <path
       style="fill:none;stroke:#000000;stroke-width:0.26458332px;stroke-linecap:butt;stroke-linejoin:miter;stroke-opacity:1"
       d="m 42.643518,106.22829 c 0.0062,0.004 -0.0016,0.0101 0,0.0148 0.0039,0.0118 0.0028,-5.3e-4 0.0059,0.0148 2.64e-4,0.002 -5.29e-4,0.004 0,0.006 5.29e-4,10e-4 0.0021,0.002 0.003,0.003 0.0021,0.003 0.0046,0.006 0.0059,0.009 7.94e-4,0.002 -7.93e-4,0.004 0,0.006 0.0013,0.003 0.0038,0.006 0.0059,0.009 7.94e-4,10e-4 0.0024,0.002 0.003,0.003 0.0062,0.0156 -2.65e-4,0.007 0.0059,0.0177 0.0019,0.003 0.0039,0.006 0.0059,0.009 0.0019,0.004 0.0037,0.008 0.0059,0.0118 0.0035,0.006 0.0087,0.0114 0.0118,0.0177 0.0013,0.003 0.0013,0.006 0.003,0.009 0.0013,0.002 0.0047,0.003 0.0059,0.006 7.94e-4,0.002 -7.93e-4,0.004 0,0.006 0.0013,0.002 0.0042,0.004 0.0059,0.006 0.0072,0.001 0.0013,0.006 0.003,0.009 4.8e-5,7e-5 0.01053,0.0112 0.0118,0.0118 7.94e-4,5.2e-4 0.0024,-8e-4 0.003,0 7.93e-4,7.9e-4 -5.29e-4,0.002 0,0.003 5.29e-4,10e-4 0.0019,0.002 0.003,0.003 0.0019,0.002 0.0036,0.004 0.0059,0.006 7.94e-4,5.2e-4 0.0021,-5.3e-4 0.003,0 0.0024,10e-4 0.0034,0.005 0.0059,0.006 7.94e-4,5.2e-4 0.0021,-5.3e-4 0.003,0 7.94e-4,2.6e-4 0.0085,0.008 0.0089,0.009 5.29e-4,7.9e-4 -7.94e-4,0.002 0,0.003 0.0016,0.002 0.0043,10e-4 0.0059,0.003 7.94e-4,7.9e-4 -2.65e-4,0.002 0,0.003 7.94e-4,0.002 0.0024,0.004 0.003,0.006 2.65e-4,10e-4 -5.29e-4,0.002 0,0.003 0.0013,0.002 0.0047,0.003 0.0059,0.006 7.94e-4,0.002 -5.29e-4,0.004 0,0.006 0.0071,0.0214 -7.93e-4,-0.005 0.0059,0.009 5.29e-4,7.9e-4 0,0.002 0,0.003 0.0011,0.002 0.0019,0.004 0.003,0.006 0.0016,0.002 0.0047,0.003 0.0059,0.006 5.29e-4,7.9e-4 0.0011,0.003 0,0.003 -0.0011,0 0,-0.002 0,-0.003"
       id="path3790"
       inkscape:connector-curvature="0" />
    <path
       style="fill:none;stroke:#000000;stroke-width:0.26458332px;stroke-linecap:butt;stroke-linejoin:miter;stroke-opacity:1"
       d="m 43.316787,106.97243 c 0.0011,0.004 0.0019,0.008 0.003,0.0118 0.0011,0.001 0.0024,0.002 0.003,0.003 5.3e-4,7.9e-4 -7.93e-4,0.002 0,0.003 0.0016,0.002 0.0042,0.002 0.0059,0.003 0.0021,0.002 0.0036,0.004 0.0059,0.006 7.94e-4,5.3e-4 0.0021,-5.3e-4 0.003,0 0.0013,5.3e-4 0.0019,0.002 0.003,0.003 0.003,0.002 0.0056,0.005 0.0089,0.006 0.0019,7.9e-4 0.0043,-10e-4 0.0059,0 0.0019,0.001 0.0013,0.005 0.003,0.006 0.0024,0.002 0.0064,0.001 0.0089,0.003 0.0019,0.001 0.0013,0.004 0.003,0.006 0.0016,0.002 0.004,0.002 0.0059,0.003 0.003,0.002 0.0058,0.004 0.0089,0.006 0.0019,0.001 0.0042,0.002 0.0059,0.003 0.0033,0.003 0.0056,0.006 0.0089,0.009 0.0019,0.001 0.0042,0.002 0.0059,0.003 0.0033,0.003 0.0054,0.007 0.0089,0.009 0.0026,0.002 0.0062,0.001 0.0089,0.003 0.01355,0.008 -0.003,0.005 0.01476,0.0118 0.0019,7.9e-4 0.004,-5.3e-4 0.0059,0 0.01426,0.004 -1.48e-4,0.001 0.0089,0.006 7.94e-4,5.3e-4 0.0021,-5.3e-4 0.003,0 0.0013,5.3e-4 0.0019,0.002 0.003,0.003 0.0011,0.001 0.0019,0.002 0.003,0.003 0.0053,0.005 0.01225,0.0133 0.01773,0.0177 0.0016,0.001 0.0041,0.002 0.0059,0.003 0.0011,7.9e-4 0.0016,0.002 0.003,0.003 0.0028,0.001 0.0064,0.001 0.0089,0.003 0.0019,0.001 0.0013,0.004 0.003,0.006 7.94e-4,7.9e-4 0.0021,-5.3e-4 0.003,0 0.0045,0.002 0.0024,0.005 0.0059,0.009 7.94e-4,7.9e-4 0.0024,-8e-4 0.003,0 7.94e-4,7.9e-4 -7.94e-4,0.002 0,0.003 7.94e-4,7.9e-4 0.0021,-5.3e-4 0.003,0 0.0026,0.001 0.0062,0.007 0.0089,0.009 0.0019,0.001 0.0043,0.001 0.0059,0.003 0.0016,0.002 0.0013,0.004 0.003,0.006 0.0016,0.002 0.0043,0.001 0.0059,0.003 0.0024,0.002 0.0034,0.006 0.0059,0.009 0.0016,0.002 0.0043,0.001 0.0059,0.003 0.0054,0.005 2.54e-4,0.005 0.0059,0.009 0.0038,0.002 0.0077,0.004 0.01183,0.006 7.94e-4,2.6e-4 0.0021,-5.3e-4 0.003,0 0.0033,0.002 0.0055,0.006 0.0089,0.009 7.94e-4,5.3e-4 0.0021,-5.3e-4 0.003,0 0.0024,0.001 0.0036,0.004 0.0059,0.006 0.0019,0.001 0.0041,0.002 0.0059,0.003 0.0011,7.9e-4 0.0016,0.002 0.003,0.003 7.94e-4,5.3e-4 0.0019,0 0.003,0 0.0019,0.001 0.0042,0.002 0.0059,0.003 0.0021,0.002 0.0036,0.004 0.0059,0.006 7.94e-4,5.3e-4 0.0019,0 0.003,0 0.0019,10e-4 0.0042,0.002 0.0059,0.003 0.0021,0.002 0.0036,0.004 0.0059,0.006 7.94e-4,5.3e-4 0.0021,-2.7e-4 0.003,0 0.0039,0.002 0.0079,0.004 0.0118,0.006 0.0011,10e-4 0.0016,0.002 0.003,0.003 0.0028,10e-4 0.0061,0.002 0.0089,0.003 0.0013,5.3e-4 0.0019,0.002 0.003,0.003 0.0019,10e-4 0.0041,0.002 0.0059,0.003 0.0011,7.9e-4 0.0016,0.002 0.003,0.003 7.94e-4,5.3e-4 0.0021,-5.3e-4 0.003,0 0.0042,0.002 0.0016,0.004 0.0059,0.006 7.94e-4,5.3e-4 0.0021,-2.4e-4 0.003,0 0.003,7.9e-4 0.0061,0.002 0.0089,0.003 0.0013,5.3e-4 0.0019,0.002 0.003,0.003 0.0028,0.002 0.0057,0.004 0.0089,0.006 7.93e-4,5.3e-4 0.0021,-2.7e-4 0.003,0 0.0042,10e-4 0.0076,0.005 0.0118,0.006 0.0011,2.6e-4 0.0021,-2.7e-4 0.003,0 0.0062,0.002 0.0086,0.007 0.01476,0.009 0.0011,2.6e-4 0.0021,-2.7e-4 0.003,0 0.0021,7.9e-4 0.0038,0.002 0.0059,0.003 0.0011,2.6e-4 0.0021,-5.3e-4 0.003,0 0.0013,5.3e-4 0.0016,0.002 0.003,0.003 0.0028,10e-4 0.0063,10e-4 0.0089,0.003 7.94e-4,5.3e-4 -7.94e-4,0.002 0,0.003 0.0024,0.002 0.01283,0.005 0.01476,0.006 0.0021,7.9e-4 0.0039,0.002 0.0059,0.003 0.0039,0.002 0.0079,0.004 0.0118,0.006 0.0019,10e-4 0.0038,0.002 0.0059,0.003 0.0011,2.6e-4 0.0021,-2.7e-4 0.003,0 0.0021,7.9e-4 0.0038,0.002 0.0059,0.003 0.0011,2.6e-4 0.0021,-5.3e-4 0.003,0 0.0024,10e-4 0.0036,0.004 0.0059,0.006 0.02141,0.0107 -0.0047,-0.003 0.0089,0.006 0.0037,0.002 0.0082,0.004 0.0118,0.006 0.0011,7.9e-4 0.0016,0.003 0.003,0.003 0.0019,5.3e-4 0.004,-5.3e-4 0.0059,0 0.0026,7.9e-4 0.0034,0.005 0.0059,0.006 7.93e-4,5.3e-4 0.0021,-5.3e-4 0.003,0 0.0013,5.3e-4 0.0016,0.002 0.003,0.003 7.94e-4,5.3e-4 0.0021,-5.3e-4 0.003,0 0.0024,0.001 0.0032,0.005 0.0059,0.006 0.0065,0.002 0.0118,-0.004 0.0118,0.006"
       id="path3792"
       inkscape:connector-curvature="0" />
    <path
       style="fill:none;stroke:#000000;stroke-width:0.26458332px;stroke-linecap:butt;stroke-linejoin:miter;stroke-opacity:1"
       d="m 43.399144,101.71664 c 0.01355,-0.0139 0.0271,-0.0277 0.04062,-0.0416 -0.0035,0.002 -0.0048,0.007 -0.0084,0.008 -0.0039,0.002 -0.0086,0.002 -0.01254,0.004 -0.0191,0.01 0.01773,-0.002 -0.01252,0.008 -0.0013,5.3e-4 -0.0029,-5.3e-4 -0.0042,0 -0.01781,0.009 0.02294,-9e-5 -0.003,0.0207 -0.0057,0.005 -0.01482,-10e-4 -0.02201,1.9e-4 -0.0013,2.7e-4 0.0013,0.004 0,0.004 -0.0024,10e-4 -0.0056,0 -0.0084,0 -0.0042,0.004 -0.0084,0.008 -0.01254,0.0125 -0.0042,0.004 -0.0078,0.009 -0.01254,0.0125 -0.0024,0.002 -0.0061,0.002 -0.0084,0.004 -0.0021,0.002 -0.0019,0.006 -0.0042,0.008 -0.0021,0.002 -0.0058,0.002 -0.0084,0.004 -0.0016,0.001 -0.0028,0.003 -0.0042,0.004 -0.0013,10e-4 -0.0033,0.002 -0.0042,0.004 -5.3e-4,0.001 0.0011,0.003 0,0.004 -0.0087,0.009 2.64e-4,-0.0132 -0.0084,0.004 -5.29e-4,0.001 5.29e-4,0.003 0,0.004 -0.0011,0.002 -0.01032,0.0103 -0.01252,0.0125 -0.007,0.007 -0.01392,0.0139 -0.02088,0.0209 -0.0013,0.001 -0.0026,0.003 -0.0042,0.004 -0.0026,0.002 -0.0062,0.002 -0.0084,0.004 -0.0011,0.001 0.0011,0.003 0,0.004 -0.0021,0.002 -0.0062,0.002 -0.0084,0.004 -0.0011,10e-4 0.0011,0.003 0,0.004 -0.0011,0.001 -0.0032,-10e-4 -0.0042,0 -0.0011,0.001 5.29e-4,0.003 0,0.004 -7.94e-4,0.002 -0.0028,0.003 -0.0042,0.004 -0.0013,10e-4 -0.0024,0.003 -0.0042,0.004 -0.0013,5.3e-4 -0.0032,-10e-4 -0.0042,0 -0.0011,0.001 5.29e-4,0.003 0,0.004 -7.94e-4,0.002 -0.0028,0.003 -0.0042,0.004 -0.0013,10e-4 -0.0024,0.003 -0.0042,0.004 -0.0013,5.3e-4 -0.0029,-5.3e-4 -0.0042,0 -0.0035,0.002 -0.0048,0.007 -0.0084,0.008 -0.0013,5.3e-4 -0.0028,0 -0.0042,0 -0.0013,10e-4 -0.0024,0.003 -0.0042,0.004 -0.0024,0.001 -0.0064,-0.002 -0.0084,0 -0.0011,0.001 0.0013,0.004 0,0.004 -0.0013,0 0.0011,-0.005 0,-0.004 -0.0021,0.002 -0.0028,0.006 -0.0042,0.008"
       id="path3794"
       inkscape:connector-curvature="0" />
    <path
       style="fill:none;stroke:#000000;stroke-width:0.26458332px;stroke-linecap:butt;stroke-linejoin:miter;stroke-opacity:1"
       d="m 42.383194,103.06337 c -0.0181,0.004 -0.03649,0.006 -0.05427,0.0107 -0.0013,2.7e-4 5.29e-4,0.003 0,0.004 -7.93e-4,0.002 -0.0033,0.002 -0.0042,0.004 -5.29e-4,0.001 5.29e-4,0.003 0,0.004 -0.01008,0.0303 0.0013,-0.007 -0.0084,0.0125 -5.29e-4,0.001 5.29e-4,0.003 0,0.004 -7.94e-4,0.002 -0.0033,0.002 -0.0042,0.004 -5.3e-4,10e-4 0,0.003 0,0.004 -0.0013,0.003 -0.0024,0.006 -0.0042,0.008 -0.0011,0.002 -0.0033,0.002 -0.0042,0.004 -0.0013,0.002 0.0011,0.01 0,0.0125 -0.0011,0.003 -0.0032,0.005 -0.0042,0.008 -0.0035,0.0107 0.0035,-0.002 0,0.008 -0.0011,0.003 -0.0032,0.005 -0.0042,0.008 -0.0013,0.004 0.0013,0.009 0,0.0125 -5.29e-4,0.002 -0.0033,0.002 -0.0042,0.004 -5.3e-4,0.001 5.29e-4,0.003 0,0.004 -0.0011,0.003 -0.0032,0.005 -0.0042,0.008 -5.29e-4,0.001 5.29e-4,0.003 0,0.004 -7.94e-4,0.002 -0.0033,0.002 -0.0042,0.004 -0.0019,0.004 -0.0026,0.008 -0.0042,0.0125 -0.0011,0.003 -0.0034,0.005 -0.0042,0.008 -7.94e-4,0.003 7.94e-4,0.006 0,0.008 -5.29e-4,0.002 -0.0033,0.002 -0.0042,0.004 -0.0013,0.003 0.0011,0.0133 0,0.0167 -0.0011,0.003 -0.0034,0.005 -0.0042,0.008 -7.94e-4,0.003 5.29e-4,0.006 0,0.008 -7.94e-4,0.004 -0.0031,0.008 -0.0042,0.0125 -2.65e-4,0.001 5.29e-4,0.003 0,0.004 -0.0011,0.003 -0.0032,0.005 -0.0042,0.008 -0.0013,0.004 0.0013,0.009 0,0.0125 -0.01008,0.0302 0.0013,-0.007 -0.0084,0.0125 -0.0013,0.002 0.0011,0.01 0,0.0125 -0.0011,0.003 -0.0024,0.006 -0.0042,0.008 -0.0011,0.002 -0.0035,0.002 -0.0042,0.004 -7.94e-4,0.003 7.93e-4,0.006 0,0.008 -0.0013,0.004 -0.0066,0.005 -0.0084,0.008 -5.29e-4,0.001 5.29e-4,0.003 0,0.004 -7.94e-4,0.002 -0.0033,0.002 -0.0042,0.004 -5.29e-4,10e-4 0.0011,0.003 0,0.004 -0.0011,0.001 -0.0029,-5.3e-4 -0.0042,0 -0.0019,8e-4 -0.0028,0.003 -0.0042,0.004 -0.0013,10e-4 -0.0033,0.002 -0.0042,0.004 -5.29e-4,0.001 0.0011,0.003 0,0.004 -0.0011,0.001 -0.0029,-5.3e-4 -0.0042,0 -0.0019,8e-4 -0.0028,0.003 -0.0042,0.004 -0.0013,10e-4 -0.0028,0.003 -0.0042,0.004"
       id="path3796"
       inkscape:connector-curvature="0" />
    <path
       style="fill:none;stroke:#000000;stroke-width:0.26458332px;stroke-linecap:butt;stroke-linejoin:miter;stroke-opacity:1"
       d="m 44.627892,100.1659 c -0.0013,-0.008 0.01341,-0.0142 0.01773,-0.0207 0.0013,-0.002 0.0013,-0.004 0.003,-0.006 0.0016,-0.002 0.0043,-0.001 0.0059,-0.003 0.0016,-0.002 0.0013,-0.004 0.003,-0.006 7.94e-4,-7.9e-4 0.0024,7.9e-4 0.003,0 0.0016,-0.002 0.0019,-0.004 0.003,-0.006 0.0019,-0.004 0.0043,-0.008 0.0059,-0.0118 0.0011,-0.003 0.0019,-0.006 0.003,-0.009 0.0044,-0.0111 0.0019,-7.9e-4 0.0089,-0.0148 5.29e-4,-7.9e-4 -1.9e-4,-0.002 0,-0.003 7.94e-4,-0.004 0.0016,-0.008 0.003,-0.0118 0.0059,-0.0177 -7.94e-4,0.007 0.0089,-0.0118 7.94e-4,-0.002 -5.29e-4,-0.004 0,-0.006 -0.0019,-0.005 0.0048,-0.005 0.0059,-0.009 5.29e-4,-0.002 -5.29e-4,-0.004 0,-0.006 5.29e-4,-10e-4 0.0024,-0.002 0.003,-0.003 5.29e-4,-7.9e-4 -5.3e-4,-0.002 0,-0.003 5.29e-4,-10e-4 0.0024,-0.002 0.003,-0.003 7.94e-4,-0.002 -5.29e-4,-0.004 0,-0.006 0.0071,-0.0214 -7.94e-4,0.005 0.0059,-0.009 5.29e-4,-7.9e-4 0,-0.002 0,-0.003 0,-0.002 -5.29e-4,-0.004 0,-0.006 0.0011,-0.004 0.0045,-0.008 0.0059,-0.01183 2.65e-4,-0.0011 -5.29e-4,-0.0084 0,-0.0089 7.94e-4,-7.94e-4 0.0026,7.94e-4 0.003,0 7.93e-4,-0.0019 -7.94e-4,-0.0042 0,-0.0059 5.29e-4,-7.94e-4 0.0024,7.93e-4 0.003,0 7.94e-4,-7.94e-4 -5.29e-4,-0.0021 0,-0.003 0.0067,-0.0067 7.94e-4,5.3e-4 0.003,-0.0059 0.0011,-0.0019 0.0019,-0.0039 0.003,-0.0059 0.0011,0 0.0024,7.94e-4 0.003,0 7.94e-4,-7.94e-4 -5.29e-4,-0.0021 0,-0.003 5.29e-4,-0.0013 0.0024,-0.0016 0.003,-0.003 5.3e-4,-7.93e-4 -7.93e-4,-0.0024 0,-0.003 7.94e-4,-7.94e-4 0.0021,5.29e-4 0.003,0 0.0065,-0.0033 7.93e-4,-0.0019 0.003,-0.0059 5.29e-4,-0.0013 0.0024,-0.0016 0.003,-0.003 5.3e-4,-7.93e-4 -0.0011,-0.0033 0,-0.003 0.01704,0.0061 0.0334,0.01386 0.0501,0.0208"
       id="path3800"
       inkscape:connector-curvature="0" />
    <path
       style="fill:none;stroke:#000000;stroke-width:0.26458332px;stroke-linecap:butt;stroke-linejoin:miter;stroke-opacity:1"
       d="m 45.439952,97.838986 c 0,0.0033 0,0.0092 2.24e-4,0.01413 2.24e-4,0.0049 0.0012,0.008 0.0032,0.01267 0.002,0.0047 0.0049,0.01059 0.0069,0.01474 0.002,0.0042 0.003,0.0072 0.0045,0.01089 0.0015,0.0037 0.0034,0.0076 0.005,0.01117 0.0015,0.0035 0.0025,0.0074 0.0056,0.01319 0.0031,0.0058 0.008,0.01164 0.01084,0.01576 0.0028,0.0041 0.0038,0.008 0.006,0.01239 0.0022,0.0044 0.0052,0.0073 0.008,0.01096 0.0028,0.0036 0.0057,0.0084 0.0087,0.01304 0.0031,0.0046 0.006,0.0085 0.0089,0.01282 0.0029,0.0043 0.0058,0.0091 0.0083,0.01313 0.0025,0.004 0.0045,0.007 0.0066,0.0098 0.0021,0.0027 0.0042,0.0048 0.0054,0.0064 0.0012,0.0016 0.0022,0.0047 0.0039,0.0079 0.0017,0.0032 0.0038,0.0053 0.0055,0.0077 0.0017,0.0024 0.0037,0.0063 0.0054,0.0093 0.0017,0.003 0.0027,0.0039 0.0034,0.0051 7.73e-4,0.0012 0.0018,0.0042 0.0026,0.0065 7.66e-4,0.0023 7.66e-4,0.0023 0.0023,0.0038 0.0015,0.0015 0.0015,0.0015 0.0017,0.0019 2.09e-4,4.12e-4 0.0013,0.0025 0.002,0.004 7.65e-4,0.0015 7.65e-4,0.0028 0.0013,0.0056 5e-4,0.0028 0.0014,0.0037 0.0034,0.0057 0.002,0.002 0.005,0.005 0.0067,0.0069 0.0017,0.0019 0.0028,0.004 0.0045,0.0064 0.0017,0.0025 0.0038,0.0045 0.0049,0.0059 0.0012,0.0014 0.0022,0.0035 0.004,0.0059 0.0017,0.0025 0.0038,0.0045 0.006,0.0076 0.0023,0.0031 0.0051,0.0079 0.0071,0.01117 0.0019,0.0033 0.003,0.0053 0.0047,0.0078 0.0017,0.0025 0.0038,0.0045 0.0055,0.0069 0.0017,0.0024 0.0037,0.0063 0.0054,0.0093 0.0018,0.003 0.0027,0.0039 0.0034,0.0051 7.73e-4,0.0012 0.0018,0.0042 0.0044,0.0089 0.0026,0.0046 0.0065,0.0095 0.0086,0.01208 0.0021,0.0026 0.0021,0.0026 0.0034,0.0059 0.0013,0.0033 0.0043,0.0071 0.0061,0.0098 0.0019,0.0026 0.0029,0.0047 0.0049,0.0086 0.002,0.0039 0.0049,0.0098 0.0069,0.01372 0.002,0.0039 0.003,0.006 0.0043,0.008 0.0013,0.002 0.0022,0.0029 0.0034,0.0049 0.0013,0.002 0.0032,0.0059 0.0045,0.0084 0.0013,0.0025 0.0013,0.0025 0.0015,0.0047 2.24e-4,0.0022 0.0012,0.0052 0.003,0.0084 0.0017,0.0032 0.0038,0.0053 0.0047,0.0062 9.75e-4,9.75e-4 9.75e-4,9.75e-4 0.0012,0.0029 2.1e-4,0.0019 0.0013,0.004 0.003,0.0064 0.0017,0.0025 0.0038,0.0045 0.0047,0.0055 9.75e-4,9.75e-4 9.75e-4,9.75e-4 0.0012,0.0029 2.1e-4,0.0019 0.0013,0.004 0.0028,0.007"
       id="path3814"
       inkscape:connector-curvature="0"
       inkscape:path-effect="#path-effect3816"
       inkscape:original-d="m 45.439952,97.838986 c 0.0026,0.0033 0.0026,0.0092 0,0.01773 0.0036,2.65e-4 0.0046,0.0033 0.003,0.0089 0.0056,0.0033 0.0085,0.0092 0.0089,0.01773 0.0036,2.64e-4 0.0046,0.0033 0.003,0.0089 0.0046,0.0013 0.0066,0.0052 0.0059,0.0118 0.0036,0.0013 0.0046,0.0052 0.003,0.0118 0.0076,0.0033 0.01249,0.0092 0.01476,0.01773 0.0036,0.0013 0.0046,0.0052 0.003,0.0118 0.0056,2.64e-4 0.0085,0.0033 0.0089,0.0089 0.0056,0.0024 0.0085,0.0072 0.0089,0.01476 0.0056,0.0013 0.0085,0.0052 0.0089,0.0118 0.0056,0.0024 0.0085,0.0072 0.0089,0.01476 0.0046,2.65e-4 0.0066,0.0033 0.0059,0.0089 0.0046,-7.94e-4 0.0066,0.0013 0.0059,0.0059 0.0036,2.65e-4 0.0046,0.0033 0.003,0.0089 0.0046,-7.94e-4 0.0066,0.0013 0.0059,0.0059 0.0046,0.0013 0.0066,0.0052 0.0059,0.0118 0.0036,-0.0016 0.0046,-7.94e-4 0.003,0.003 0.0036,2.65e-4 0.0046,0.0033 0.003,0.0089 0.0026,-0.0016 0.0026,-7.94e-4 0,0.003 0.0036,-0.0026 0.0046,-0.0026 0.003,0 0.0036,-7.93e-4 0.0046,0.0013 0.003,0.0059 0.0026,-7.94e-4 0.0026,0.0013 0,0.0059 0.0036,-0.0016 0.0046,-7.94e-4 0.003,0.003 0.0056,2.65e-4 0.0085,0.0033 0.0089,0.0089 0.0036,-7.94e-4 0.0046,0.0013 0.003,0.0059 0.0046,-7.94e-4 0.0066,0.0013 0.0059,0.0059 0.0036,-7.94e-4 0.0046,0.0013 0.003,0.0059 0.0046,-7.93e-4 0.0066,0.0013 0.0059,0.0059 0.0056,0.0024 0.0085,0.0072 0.0089,0.01476 0.0036,-7.94e-4 0.0046,0.0013 0.003,0.0059 0.0046,-7.93e-4 0.0066,0.0013 0.0059,0.0059 0.0046,0.0013 0.0066,0.0052 0.0059,0.0118 0.0036,-0.0016 0.0046,-7.94e-4 0.003,0.003 0.0036,2.65e-4 0.0046,0.0033 0.003,0.0089 0.0066,0.0024 0.01053,0.0072 0.0118,0.01476 0.0026,-0.0016 0.0026,-7.94e-4 0,0.003 0.0056,0.0013 0.0085,0.0052 0.0089,0.0118 0.0036,-7.93e-4 0.0046,0.0013 0.003,0.0059 0.0056,0.0033 0.0085,0.0092 0.0089,0.01773 0.0036,-7.94e-4 0.0046,0.0013 0.003,0.0059 0.0036,-0.0016 0.0046,-7.94e-4 0.003,0.003 0.0046,0.0013 0.0066,0.0052 0.0059,0.0118 0.0026,-0.0016 0.0026,-7.94e-4 0,0.003 0.0036,2.65e-4 0.0046,0.0033 0.003,0.0089 0.0046,-7.94e-4 0.0066,0.0013 0.0059,0.0059 0.0026,-0.0016 0.0026,-7.94e-4 0,0.003 0.0036,-7.94e-4 0.0046,0.0013 0.003,0.0059 0.0046,-7.93e-4 0.0066,0.0013 0.0059,0.0059 0.0026,-0.0016 0.0026,-7.94e-4 0,0.003 0.0036,-7.94e-4 0.0046,0.0013 0.003,0.0059" />
    <path
       style="fill:none;stroke:#000000;stroke-width:0.26458332px;stroke-linecap:butt;stroke-linejoin:miter;stroke-opacity:1"
       d="m 45.832384,98.432701 c -0.0016,0.01775 -0.0035,0.03836 -0.0038,0.05125 -3e-4,0.01289 0.0017,0.01592 0.0031,0.01811 0.0014,0.0022 0.0024,0.0043 0.0042,0.0067 0.0017,0.0025 0.0038,0.0045 0.0055,0.0069 0.0017,0.0024 0.0037,0.0063 0.0057,0.01 0.002,0.0037 0.004,0.0067 0.0052,0.0085 0.0012,0.0018 0.0012,0.0018 0.0017,0.0038 5e-4,0.002 0.0014,0.0029 0.0027,0.0046 0.0013,0.0017 0.0033,0.0047 0.0045,0.0065 0.0012,0.0018 0.0012,0.0018 0.0017,0.0038 5e-4,0.002 0.0014,0.0029 0.002,0.0035 5.48e-4,5.48e-4 5.48e-4,5.48e-4 0.001,0.0025 5e-4,0.002 0.0014,0.0029 0.002,0.0041 5.49e-4,0.0012 5.49e-4,0.0051 0.001,0.0089 5e-4,0.0038 0.0014,0.0047 0.0025,0.0058"
       id="path3818"
       inkscape:connector-curvature="0"
       inkscape:path-effect="#path-effect3820"
       inkscape:original-d="m 45.832384,98.432701 c 7.94e-4,0.01797 -0.0011,0.03858 -0.0056,0.06184 0.0046,2.65e-4 0.0066,0.0033 0.0059,0.0089 0.0036,-7.94e-4 0.0046,0.0013 0.003,0.0059 0.0046,-7.94e-4 0.0066,0.0013 0.0059,0.0059 0.0046,0.0013 0.0066,0.0052 0.0059,0.0118 0.0046,2.65e-4 0.0066,0.0033 0.0059,0.0089 0.0026,-0.0016 0.0026,-7.94e-4 0,0.003 0.0036,-0.0016 0.0046,-7.93e-4 0.003,0.003 0.0046,2.64e-4 0.0066,0.0033 0.0059,0.0089 0.0026,-0.0016 0.0026,-7.94e-4 0,0.003 0.0036,-0.0016 0.0046,-7.93e-4 0.003,0.003 0.0026,-0.0016 0.0026,-7.94e-4 0,0.003 0.0036,-0.0016 0.0046,-7.94e-4 0.003,0.003 0.0026,0.0013 0.0026,0.0052 0,0.0118 0.0036,-0.0016 0.0046,-7.94e-4 0.003,0.003" />
    <path
       style="fill:none;stroke:#000000;stroke-width:0.26458332px;stroke-linecap:butt;stroke-linejoin:miter;stroke-opacity:1"
       d="m 46.597504,99.64028 c 6.43e-4,0.0038 0.0016,0.0097 0.0025,0.01413 8.89e-4,0.0044 0.0019,0.0065 0.0032,0.0085 0.0013,0.002 0.0022,0.0029 0.0029,0.0039 7.58e-4,9.6e-4 0.0018,0.003 0.0041,0.0053 0.0023,0.0023 0.0042,0.0032 0.0049,0.0039 6.98e-4,6.6e-4 0.0017,0.0027 0.0045,0.0062 0.0027,0.0035 0.0067,0.0074 0.0086,0.0094 0.002,0.002 0.002,0.002 0.0029,0.0044 9.52e-4,0.0025 0.003,0.0045 0.0054,0.0069 0.0024,0.0024 0.0054,0.0054 0.0094,0.0094 0.004,0.004 0.0088,0.0088 0.01225,0.01225 0.0034,0.0034 0.0055,0.0055 0.0079,0.0072 0.0025,0.0017 0.0044,0.0027 0.0054,0.0035 9.88e-4,7.48e-4 0.0019,0.0017 0.0039,0.0022 0.002,5.48e-4 0.002,5.48e-4 0.002,5.48e-4 0,0 0,0 0.0015,0.0015 0.0015,0.0015 0.0015,0.0015 0.0015,0.0015 0,0 0,0 0.0015,0.0015 0.0015,0.0015 0.0015,0.0015 0.0017,0.0019 2.09e-4,4.12e-4 0.0013,0.0025 0.0035,0.004 0.0023,0.0015 0.0023,0.0015 0.0023,0.0015 0,0 0,0 0.0015,0.0015 0.0015,0.0015 0.0015,0.0015 0.0015,0.0015 0,0 0,0 5e-4,0.002 5e-4,0.002 0.0014,0.0029 0.002,0.0035 5.49e-4,5.49e-4 5.49e-4,0.0018 0.002,0.0041 0.0015,0.0023 0.0015,0.0023 0.002,0.0028 5e-4,5e-4 0.0014,0.0014 0.0025,0.0025"
       id="path3822"
       inkscape:connector-curvature="0"
       inkscape:path-effect="#path-effect3824"
       inkscape:original-d="m 46.597504,99.64028 c 0.0036,0.0033 0.0046,0.0092 0.003,0.01773 0.0036,-7.94e-4 0.0046,0.0013 0.003,0.0059 0.0036,-0.0016 0.0046,-7.93e-4 0.003,0.003 0.0036,-7.94e-4 0.0046,0.0013 0.003,0.0059 0.0046,-0.0016 0.0066,-7.94e-4 0.0059,0.003 0.0036,-7.93e-4 0.0046,0.0013 0.003,0.0059 0.0066,0.0013 0.01053,0.0052 0.01183,0.0118 0.0026,-0.0016 0.0026,-7.94e-4 0,0.003 0.0046,-7.94e-4 0.0066,0.0013 0.0059,0.0059 0.0056,2.65e-4 0.0085,0.0033 0.0089,0.0089 0.0076,0.0024 0.01249,0.0072 0.01476,0.01476 0.0046,-7.94e-4 0.0066,0.0013 0.0059,0.0059 0.0046,-0.0016 0.0066,-7.94e-4 0.0059,0.003 0.0036,-0.0016 0.0046,-7.93e-4 0.003,0.003 0.0036,-0.0026 0.0046,-0.0026 0.003,0 0.0026,-0.0016 0.0026,-7.94e-4 0,0.003 0.0036,-0.0026 0.0046,-0.0026 0.003,0 0.0026,-0.0016 0.0026,-7.94e-4 0,0.003 0.0036,-0.0026 0.0046,-0.0026 0.003,0 0.0036,-7.93e-4 0.0046,0.0013 0.003,0.0059 0.0036,-0.0026 0.0046,-0.0026 0.003,0 0.0026,-0.0016 0.0026,-7.93e-4 0,0.003 0.0036,-0.0026 0.0046,-0.0026 0.003,0 0.0026,-0.0016 0.0026,-7.94e-4 0,0.003 0.0036,-0.0016 0.0046,-7.94e-4 0.003,0.003 0.0026,-7.93e-4 0.0026,0.0013 0,0.0059 0.0036,-0.0026 0.0046,-0.0026 0.003,0 0.0036,-0.0016 0.0046,-7.94e-4 0.003,0.003" />
    <path
       style="fill:none;stroke:#000000;stroke-width:0.26458332px;stroke-linecap:butt;stroke-linejoin:miter;stroke-opacity:1"
       d="m 47.087692,100.28993 c 0.007,0.006 0.01392,0.0119 0.01804,0.016 0.0041,0.004 0.006,0.007 0.0096,0.0112 0.0037,0.004 0.0086,0.009 0.01237,0.0135 0.0038,0.004 0.0067,0.008 0.0094,0.0113 0.0026,0.003 0.0045,0.005 0.0069,0.008 0.0023,0.003 0.0053,0.007 0.0085,0.0104 0.0032,0.004 0.006,0.007 0.0076,0.008 0.0016,0.002 0.0016,0.003 0.002,0.006 4e-4,0.003 0.0015,0.004 0.0023,0.005 7.5e-4,9.5e-4 0.0017,0.003 0.0029,0.005 0.0012,0.002 0.0023,0.003 0.0029,0.004 5.48e-4,5.5e-4 5.48e-4,5.5e-4 0.0015,0.003 9.33e-4,0.002 0.0028,0.004 0.0039,0.005 0.0011,0.001 0.0011,0.001 0.0015,0.003 4e-4,0.002 0.0015,0.003 0.0021,0.004 5.48e-4,5.5e-4 5.48e-4,5.5e-4 0.0015,0.003 9.33e-4,0.002 0.0028,0.004 0.0039,0.005 0.0011,0.001 0.0011,0.001 0.0015,0.003 4e-4,0.002 0.0015,0.003 0.0027,0.005 0.0012,0.002 0.0032,0.006 0.0049,0.009 0.0017,0.003 0.0028,0.004 0.004,0.006 0.0012,0.002 0.0032,0.006 0.0058,0.0101 0.0025,0.004 0.0055,0.008 0.0076,0.0109 0.0021,0.003 0.0032,0.004 0.004,0.005 7.5e-4,9.5e-4 0.0017,0.003 0.0033,0.006"
       id="path3826"
       inkscape:connector-curvature="0"
       inkscape:path-effect="#path-effect3828"
       inkscape:original-d="m 47.087692,100.28993 c 0.0095,0.003 0.01643,0.009 0.02066,0.0177 0.0046,2.6e-4 0.0066,0.003 0.0059,0.009 0.0076,0.002 0.01249,0.007 0.01476,0.0148 0.0056,0.001 0.0085,0.005 0.0089,0.0118 0.0046,-8e-4 0.0066,10e-4 0.0059,0.006 0.0056,10e-4 0.0085,0.005 0.0089,0.0118 0.0056,2.6e-4 0.0085,0.003 0.0089,0.009 0.0026,-8e-4 0.0026,0.001 0,0.006 0.0036,-0.002 0.0046,-7.9e-4 0.003,0.003 0.0036,-7.9e-4 0.0046,0.001 0.003,0.006 0.0036,-0.002 0.0046,-7.9e-4 0.003,0.003 0.0026,-0.002 0.0026,-7.9e-4 0,0.003 0.0046,-7.9e-4 0.0066,0.001 0.0059,0.006 0.0026,-0.002 0.0026,-7.9e-4 0,0.003 0.0036,-0.002 0.0046,-7.9e-4 0.003,0.003 0.0026,-0.002 0.0026,-7.9e-4 0,0.003 0.0046,-7.9e-4 0.0066,0.001 0.0059,0.006 0.0026,-0.002 0.0026,-7.9e-4 0,0.003 0.0036,-0.002 0.0046,-7.9e-4 0.003,0.003 0.0046,0.001 0.0066,0.005 0.0059,0.0118 0.0036,-0.002 0.0046,-7.9e-4 0.003,0.003 0.0046,0.001 0.0066,0.005 0.0059,0.0118 0.0056,10e-4 0.0085,0.005 0.0089,0.0118 0.0036,-0.002 0.0046,-7.9e-4 0.003,0.003 0.0036,-7.9e-4 0.0046,0.001 0.003,0.006" />
    <path
       style="fill:none;stroke:#000000;stroke-width:0.26458332px;stroke-linecap:butt;stroke-linejoin:miter;stroke-opacity:1"
       d="m 44.787352,99.879466 c -0.0011,0.0038 -0.003,0.01064 -0.0045,0.01565 -0.0014,0.005 -0.0014,0.005 -0.0029,0.0066 -0.0015,0.0016 -0.0015,0.0047 -0.0015,0.0075 0,0.0028 -0.0013,0.0041 -0.0037,0.0068 -0.0024,0.0027 -0.0034,0.0066 -0.0043,0.01013 -9.03e-4,0.0036 -0.0018,0.0063 -0.003,0.0098 -0.0011,0.0035 -0.0021,0.0074 -0.0036,0.01185 -0.0015,0.0045 -0.0044,0.0094 -0.007,0.01373 -0.0026,0.0044 -0.0046,0.0083 -0.0067,0.01279 -0.0021,0.0045 -0.0041,0.0093 -0.0078,0.01722 -0.0037,0.0079 -0.0096,0.0187 -0.0135,0.02597 -0.0039,0.007 -0.0049,0.0112 -0.0061,0.0152 -0.0012,0.004 -0.0042,0.008 -0.0073,0.0128 -0.0031,0.005 -0.0051,0.0108 -0.0072,0.0166 -0.0022,0.006 -0.0052,0.0119 -0.0081,0.0192 -0.0029,0.007 -0.0049,0.0165 -0.0078,0.0273 -0.0028,0.0108 -0.0067,0.0235 -0.0092,0.0316 -0.0025,0.008 -0.0025,0.0109 -0.0025,0.0139 0,0.003 0,0.003 -0.0015,0.005 -0.0015,0.001 -0.0026,0.003 -0.005,0.005 -0.0024,0.002 -0.0024,0.003 -0.0024,0.006 0,0.002 0,0.002 -0.0015,0.004 -0.0015,0.001 -0.0017,0.002 -0.0031,0.005 -0.0014,0.003 -0.0014,0.003 -0.0014,0.004 0,0.001 -0.0011,0.003 -0.0035,0.005 -0.0024,0.002 -0.0026,0.003 -0.004,0.006 -0.0014,0.003 -0.0014,0.003 -0.0029,0.004 -0.0015,0.001 -0.0015,0.002 -0.0016,0.005 -1.3e-4,0.003 -0.003,0.006 -0.0059,0.008 -0.0029,0.003 -0.0037,0.005 -0.0048,0.009 -0.0011,0.003 -0.0011,0.003 -0.0026,0.005 -0.0015,0.002 -0.0023,0.004 -0.0034,0.007 -0.0011,0.003 -0.0011,0.003 -0.0026,0.003 -0.0015,0 -0.0015,0.001 -0.0015,0.004 0,0.002 -0.0011,0.004 -0.0035,0.006 -0.0024,0.002 -0.0024,0.002 -0.0024,0.004 0,0.002 -0.0011,0.003 -0.0035,0.005 -0.0024,0.002 -0.0024,0.002 -0.0024,0.004 0,0.002 -7.1e-4,0.002 -0.0033,0.003 -0.0026,0.001 -0.0026,0.002 -0.0026,0.005 0,0.002 -2.41e-4,0.003 -0.0016,0.006 -0.0014,0.003 -0.0014,0.003 -0.0029,0.004 -0.0015,0.002 -0.0033,0.004 -0.0053,0.007 -0.0021,0.003 -0.0021,0.003 -0.0036,0.005 -0.0015,0.002 -0.0015,0.002 -0.0015,0.003 0,0.002 -0.0011,0.003 -0.0035,0.005 -0.0024,0.002 -0.0024,0.003 -0.0024,0.006 0,0.002 0,0.002 -0.0015,0.002 -0.0015,0 -0.0015,0 -0.0015,0.001 0,0.002 0,0.002 -0.0015,0.003 -0.0015,0.002 -0.0015,0.002 -0.0045,0.005"
       id="path3830"
       inkscape:connector-curvature="0"
       inkscape:path-effect="#path-effect3832"
       inkscape:original-d="m 44.787352,99.879466 c 7.93e-4,0.0043 -0.0013,0.01114 -0.0059,0.02066 0.0016,-0.0016 7.94e-4,-7.94e-4 -0.003,0.003 0.0026,2.65e-4 0.0026,0.0033 0,0.0089 7.94e-4,-7.94e-4 -0.0013,0.0013 -0.0059,0.0059 0.0016,0.0013 7.94e-4,0.0052 -0.003,0.0118 0.0016,2.64e-4 7.94e-4,0.0033 -0.003,0.0089 0.0016,0.0013 7.94e-4,0.0052 -0.003,0.0118 -2.65e-4,0.0024 -0.0033,0.0072 -0.0089,0.01476 7.94e-4,0.0013 -0.0013,0.0052 -0.0059,0.0118 7.94e-4,0.0024 -0.0013,0.0072 -0.0059,0.01476 -0.0033,0.0082 -0.0092,0.019 -0.01773,0.03248 0.0016,10e-4 7.94e-4,0.005 -0.003,0.0118 -2.64e-4,0.001 -0.0033,0.005 -0.0089,0.0118 7.94e-4,0.003 -0.0013,0.009 -0.0059,0.0177 -2.65e-4,0.003 -0.0033,0.009 -0.0089,0.0177 7.94e-4,0.006 -0.0013,0.0151 -0.0059,0.0266 -0.0013,0.0102 -0.0052,0.0229 -0.01183,0.0384 0.0026,2.6e-4 0.0026,0.003 0,0.009 0.0016,-0.002 7.94e-4,-8e-4 -0.003,0.003 7.93e-4,-8e-4 -0.0013,0.001 -0.0059,0.006 0.0026,-8e-4 0.0026,0.001 0,0.006 0.0016,-0.002 7.93e-4,-8e-4 -0.003,0.003 0.0016,-8e-4 7.94e-4,0.001 -0.003,0.006 0.0026,-0.002 0.0026,-8e-4 0,0.003 7.94e-4,-8e-4 -0.0013,0.001 -0.0059,0.006 0.0016,-8e-4 7.93e-4,0.001 -0.003,0.006 0.0016,-0.002 7.94e-4,-8e-4 -0.003,0.003 0.0026,-8e-4 0.0026,0.001 0,0.006 -2.65e-4,2.6e-4 -0.0033,0.003 -0.0089,0.009 0.0016,2.6e-4 7.94e-4,0.003 -0.003,0.009 0.0016,-0.002 7.94e-4,-8e-4 -0.003,0.003 0.0016,2.6e-4 7.94e-4,0.003 -0.003,0.009 0.0016,-0.003 7.94e-4,-0.003 -0.003,0 0.0026,-8e-4 0.0026,0.001 0,0.006 7.94e-4,-8e-4 -0.0013,0.001 -0.0059,0.006 0.0026,-0.002 0.0026,-8e-4 0,0.003 7.94e-4,-8e-4 -0.0013,0.001 -0.0059,0.006 0.0026,-0.002 0.0026,-8e-4 0,0.003 7.93e-4,-0.002 -0.0013,-8e-4 -0.0059,0.003 0.0026,-8e-4 0.0026,10e-4 0,0.006 0.0016,-8e-4 7.94e-4,10e-4 -0.003,0.006 0.0016,-0.002 7.94e-4,-8e-4 -0.003,0.003 7.94e-4,2.6e-4 -0.0013,0.003 -0.0059,0.009 0.0016,-0.002 7.93e-4,-8e-4 -0.003,0.003 0.0026,-0.002 0.0026,-8e-4 0,0.003 7.94e-4,-8e-4 -0.0013,10e-4 -0.0059,0.006 0.0026,-8e-4 0.0026,10e-4 0,0.006 0.0016,-0.003 7.94e-4,-0.003 -0.003,0 0.0026,-0.002 0.0026,-8e-4 0,0.003 0.0016,-0.002 7.93e-4,-8e-4 -0.003,0.003 0.0016,-0.002 7.94e-4,-8e-4 -0.003,0.003" />
    <path
       style="fill:none;stroke:#000000;stroke-width:0.26458332px;stroke-linecap:butt;stroke-linejoin:miter;stroke-opacity:1"
       d="m 42.345514,105.53479 c 0,0.0419 0,0.0864 0,0.11152 0,0.0251 0,0.0301 0,0.036 0,0.006 0,0.0108 0.0028,0.018 0.0028,0.007 0.0081,0.0124 0.01351,0.0229 0.0054,0.0105 0.011,0.0272 0.01684,0.0391 0.0058,0.0119 0.01113,0.0172 0.01654,0.0276 0.0054,0.0104 0.01101,0.0272 0.01684,0.0392 0.0058,0.0119 0.01113,0.0172 0.01645,0.025 0.0053,0.008 0.01107,0.0193 0.01412,0.0269 0.0031,0.008 0.0031,0.0126 0.0084,0.025 0.0054,0.0124 0.01653,0.0291 0.02229,0.0393 0.0058,0.0101 0.0058,0.0151 0.0099,0.0195 0.0041,0.004 0.0097,0.004 0.01356,0.009 0.0039,0.005 0.0096,0.0163 0.01268,0.024 0.0031,0.008 0.0031,0.0126 0.0072,0.017 0.0041,0.004 0.0097,0.004 0.01113,0.008 0.0015,0.004 0.0015,0.0156 0.0056,0.0225 0.0041,0.007 0.0097,0.007 0.01394,0.01 0.0043,0.003 0.0095,0.008 0.01244,0.0125 0.0029,0.004 0.0029,0.009 0.0057,0.0165 0.0028,0.007 0.0081,0.0124 0.01099,0.0169 0.0029,0.004 0.0029,0.009 0.009,0.0168 0.0061,0.007 0.01702,0.0129 0.02216,0.0169 0.0051,0.004 0.0051,0.009 0.0079,0.0162 0.0028,0.007 0.0081,0.0124 0.01099,0.0194 0.0029,0.007 0.0029,0.0185 0.007,0.0254 0.0041,0.007 0.0097,0.007 0.01364,0.0144 0.004,0.008 0.0096,0.0243 0.01804,0.0389 0.0085,0.0146 0.01986,0.0259 0.02543,0.033 0.0056,0.007 0.0056,0.0121 0.0084,0.0192 0.0028,0.007 0.0081,0.0125 0.011,0.0169 0.0029,0.004 0.0029,0.009 0.009,0.0168 0.0061,0.007 0.01702,0.0129 0.02216,0.0169 0.0051,0.004 0.0051,0.0101 0.0079,0.0167 0.0028,0.007 0.0081,0.0119 0.011,0.0164 0.0029,0.004 0.0029,0.009 0.009,0.0168 0.0061,0.007 0.01703,0.0129 0.02216,0.0169 0.0051,0.004 0.0051,0.009 0.01347,0.0218 0.0083,0.0127 0.02509,0.0294 0.03343,0.0393 0.0083,0.01 0.0083,0.0148 0.01244,0.0192 0.0041,0.004 0.0097,0.004 0.01114,0.006 0.0015,0.001 0.0015,0.007 0.0056,0.0109 0.0041,0.004 0.0097,0.004 0.01113,0.006 0.0015,0.001 0.0015,0.007 0.0098,0.0192 0.0083,0.0127 0.02509,0.0294 0.03343,0.0393 0.0083,0.01 0.0083,0.0148 0.01244,0.0192 0.0041,0.004 0.0097,0.004 0.01393,0.007 0.0043,0.003 0.0095,0.008 0.01487,0.0158 0.0053,0.008 0.01108,0.0192 0.01823,0.0254 0.0072,0.006 0.01273,0.006 0.01964,0.0115 0.0069,0.005 0.01827,0.0168 0.02996,0.0254 0.01169,0.009 0.0226,0.0141 0.03053,0.0194 0.0079,0.005 0.01322,0.0107 0.02023,0.0136 0.007,0.003 0.01258,0.003 0.01948,0.008 0.0069,0.005 0.01827,0.0168 0.02795,0.0224 0.0097,0.006 0.01525,0.006 0.01671,0.007 0.0015,0.001 0.0015,0.007 0.0056,0.0113 0.0041,0.004 0.0097,0.004 0.01114,0.005 0.0015,0.001 0.0015,0.007 0.01061,0.0139 0.0092,0.007 0.02569,0.0129 0.04166,0.0238 0.01597,0.0109 0.03272,0.0276 0.04516,0.036 0.01244,0.008 0.01802,0.008 0.01948,0.01 0.0015,0.001 0.0015,0.006 0.0056,0.0108 0.0041,0.004 0.0097,0.004 0.0195,0.0127 0.0098,0.008 0.02652,0.0251 0.03896,0.0334 0.01244,0.008 0.01802,0.008 0.0219,0.0132 0.0039,0.005 0.0096,0.0164 0.01678,0.0225 0.0072,0.006 0.01274,0.006 0.0142,0.008 0.0015,0.001 0.0015,0.006 0.0076,0.0139 0.0061,0.007 0.01703,0.0129 0.02216,0.0169 0.0051,0.004 0.0051,0.009 0.0092,0.0134 0.0041,0.004 0.0097,0.004 0.01114,0.006 0.0015,0.001 0.0015,0.006 0.0056,0.0108 0.0041,0.004 0.0097,0.004 0.01114,0.006 0.0015,0.001 0.0015,0.006 0.01259,0.022 0.01113,0.0155 0.03342,0.0378 0.04865,0.0489 0.01523,0.0111 0.02081,0.0111 0.02227,0.0126 0.0015,0.002 0.0015,0.007 0.0043,0.0137 0.0028,0.007 0.0081,0.0124 0.01379,0.0181 0.0057,0.006 0.01099,0.011 0.02001,0.017 0.009,0.006 0.01992,0.0114 0.02506,0.0155 0.0051,0.004 0.0051,0.0101 0.0092,0.0139 0.0041,0.004 0.0097,0.004 0.01394,0.007 0.0043,0.003 0.0095,0.008 0.01655,0.011 0.007,0.003 0.01259,0.003 0.01949,0.008 0.0069,0.005 0.01828,0.0168 0.02795,0.0224 0.0097,0.006 0.01525,0.006 0.02215,0.011 0.0069,0.005 0.01827,0.0168 0.02795,0.0224 0.0097,0.006 0.01525,0.006 0.01951,0.008 0.0043,0.003 0.0095,0.008 0.0216,0.0141 0.01206,0.006 0.0286,0.0115 0.04168,0.0194 0.01308,0.008 0.02445,0.0194 0.03691,0.0249 0.01246,0.006 0.0236,0.006 0.03065,0.008 0.007,0.003 0.01233,0.008 0.0249,0.011 0.01257,0.003 0.02929,0.003 0.04547,0.006 0.01618,0.003 0.03273,0.009 0.04951,0.0142 0.01679,0.006 0.03333,0.0111 0.05253,0.0194 0.0192,0.008 0.04166,0.0196 0.07006,0.0278 0.0284,0.008 0.06171,0.0138 0.08653,0.0195 0.02483,0.006 0.04137,0.0112 0.07259,0.0137 0.03123,0.003 0.07578,0.003 0.105497,0.008 0.02972,0.006 0.04618,0.0168 0.07504,0.0222 0.02886,0.005 0.06784,0.005 0.09011,0.005 0.02227,0 0.02784,0 0.0334,0 0.0056,0 0.01114,0 0.0126,0.001 0.0015,0.002 0.0015,0.007 0.0056,0.0109 0.0041,0.004 0.0097,0.004 0.02638,0.004 0.0167,0 0.04453,0 0.05993,0.003 0.0154,0.003 0.02069,0.008 0.02769,0.011 0.007,0.003 0.01259,0.003 0.01685,0.006 0.0043,0.003 0.0095,0.008 0.01654,0.011 0.007,0.003 0.01258,0.003 0.03207,0.003 0.01948,0 0.05288,0 0.07107,0.003 0.01818,0.003 0.02347,0.008 0.03047,0.011 0.007,0.003 0.01258,0.003 0.02093,0.003 0.0084,0 0.01949,0 0.02653,0.003 0.007,0.003 0.01233,0.008 0.01933,0.011 0.007,0.003 0.01258,0.003 0.02093,0.003 0.0083,0 0.01949,0 0.03619,0 0.0167,0 0.03898,0 0.05568,0 0.01671,0 0.02784,0 0.03619,0 0.0083,0 0.01393,0 0.01818,0.003 0.0043,0.003 0.0095,0.008 0.01933,0.011 0.0098,0.003 0.02093,0.003 0.03129,0.006 0.01036,0.003 0.02127,0.009 0.04444,0.0111 0.02317,0.003 0.05657,0.003 0.07605,0.003 0.01948,0 0.02506,0 0.02932,0.003 0.0043,0.003 0.0095,0.008 0.02491,0.011 0.01537,0.003 0.03764,0.003 0.05025,0.006 0.01261,0.003 0.0179,0.008 0.04161,0.011 0.02371,0.003 0.06269,0.003 0.08496,0.003 0.02227,0 0.02784,0 0.0321,0.003 0.0043,0.003 0.0095,0.008 0.02769,0.011 0.01815,0.003 0.04599,0.003 0.09053,0.003 0.04454,0 0.105792,0 0.150038,0.003 0.04424,0.003 0.07198,0.009 0.08903,0.0111 0.01705,0.003 0.02263,0.003 0.03098,0.003 0.0084,0 0.01949,0 0.03898,0 0.01949,0 0.04733,0 0.07517,0 0.02784,0 0.05567,0 0.07237,0 0.0167,0 0.02228,0 0.02374,-0.004 0.0015,-0.004 0.0015,-0.01 0.0084,-0.0113 0.0069,-0.001 0.01803,-0.001 0.02632,-0.005 0.0083,-0.004 0.01398,-0.01 0.02232,-0.0112 0.0083,-0.001 0.01948,-0.001 0.02778,-0.005 0.0083,-0.004 0.01398,-0.01 0.01953,-0.0112 0.0056,-0.001 0.01114,-0.001 0.0126,-0.005 0.0015,-0.004 0.0015,-0.01 0.0083,-0.0113 0.0069,-0.001 0.01803,-0.001 0.02632,-0.005 0.0083,-0.004 0.01398,-0.01 0.01953,-0.0112 0.0056,-0.001 0.01113,-0.001 0.01664,-0.005 0.0055,-0.004 0.0112,-0.01 0.01675,-0.0112 0.0056,-0.001 0.01113,-0.001 0.01664,-0.006 0.0055,-0.004 0.01119,-0.01 0.0251,-0.0112 0.01391,-0.001 0.03618,-0.001 0.05004,-0.005 0.01386,-0.004 0.01956,-0.01 0.02511,-0.0112 0.0056,-0.001 0.01113,-0.001 0.01664,-0.005 0.0055,-0.004 0.01119,-0.01 0.01954,-0.0112 0.0083,-0.001 0.01948,-0.001 0.02777,-0.005 0.0083,-0.004 0.01398,-0.01 0.02255,-0.0147 0.0086,-0.005 0.0198,-0.0106 0.03344,-0.0126 0.01365,-0.002 0.03036,-0.002 0.04729,-0.005 0.01693,-0.003 0.03371,-0.009 0.05293,-0.0112 0.01922,-0.002 0.04149,-0.002 0.06119,-0.009 0.0197,-0.007 0.03639,-0.0177 0.05011,-0.0223 0.01372,-0.005 0.02486,-0.005 0.036,-0.0114 0.01114,-0.007 0.02226,-0.018 0.03061,-0.0223 0.0083,-0.004 0.01393,-0.004 0.01943,-0.008 0.0055,-0.004 0.0112,-0.01 0.01675,-0.0112 0.0056,-0.001 0.01113,-0.001 0.01259,-0.005 0.0015,-0.004 0.0015,-0.01 0.0055,-0.0153 0.004,-0.005 0.0097,-0.0112 0.01525,-0.0167 0.0055,-0.006 0.0112,-0.0112 0.01675,-0.0127 0.0056,-0.001 0.01114,-0.001 0.01664,-0.006 0.0055,-0.004 0.01119,-0.01 0.01669,-0.0152 0.0055,-0.005 0.01119,-0.0112 0.0251,-0.0251 0.01391,-0.0139 0.0362,-0.0362 0.05006,-0.05 0.01386,-0.0139 0.01955,-0.0195 0.02812,-0.0246 0.0086,-0.005 0.0198,-0.0106 0.02377,-0.0166 0.004,-0.006 0.004,-0.0118 0.0081,-0.0132 0.0041,-0.001 0.0097,-0.001 0.01114,-0.005 0.0015,-0.004 0.0015,-0.01 0.0056,-0.0112 0.0041,-0.001 0.0097,-0.001 0.01114,-0.005 0.0015,-0.004 0.0015,-0.01 0.0086,-0.0148 0.0071,-0.005 0.01835,-0.0106 0.02642,-0.0126 0.0081,-0.002 0.01366,-0.002 0.01511,-0.006 0.0015,-0.004 0.0015,-0.01 0.0056,-0.0112 0.0041,-0.001 0.0097,-0.001 0.01825,-0.005 0.0086,-0.004 0.0198,-0.009 0.02736,-0.0183 0.0076,-0.009 0.01311,-0.0203 0.0192,-0.0242 0.0061,-0.004 0.01168,-0.004 0.01314,-0.008 0.0015,-0.004 0.0015,-0.01 0.0056,-0.0112 0.0041,-0.001 0.0097,-0.001 0.01471,-0.009 0.005,-0.007 0.01059,-0.0183 0.01668,-0.0223 0.0061,-0.004 0.01168,-0.004 0.01313,-0.008 0.0015,-0.004 0.0015,-0.01 0.0056,-0.0112 0.0041,-0.001 0.0097,-0.001 0.01825,-0.005 0.0086,-0.004 0.0198,-0.009 0.02378,-0.0152 0.004,-0.006 0.004,-0.0118 0.01087,-0.0132 0.0069,-0.001 0.01803,-0.001 0.02227,-0.005 0.0042,-0.004 0.0042,-0.01 0.0083,-0.0112 0.0041,-0.001 0.0097,-0.001 0.02359,-0.0139 0.01391,-0.0125 0.0362,-0.0347 0.05011,-0.0445 0.01391,-0.01 0.01949,-0.01 0.02453,-0.017 0.005,-0.007 0.01059,-0.0183 0.01668,-0.0223 0.0061,-0.004 0.01168,-0.004 0.01314,-0.008 0.0015,-0.004 0.0015,-0.01 0.0086,-0.0148 0.0071,-0.005 0.01834,-0.0106 0.02232,-0.0166 0.004,-0.006 0.004,-0.0118 0.0081,-0.0132 0.0041,-0.001 0.0097,-0.001 0.01114,-0.005 0.0015,-0.004 0.0015,-0.01 0.0055,-0.0153 0.004,-0.005 0.0097,-0.0112 0.01119,-0.0166 0.0015,-0.005 0.0015,-0.0113 0.0055,-0.0168 0.004,-0.005 0.0097,-0.0112 0.01119,-0.0166 0.0015,-0.005 0.0015,-0.0113 0.01111,-0.0224 0.0097,-0.0111 0.02642,-0.0279 0.03344,-0.0389 0.007,-0.011 0.007,-0.0168 0.01111,-0.0183 0.0041,-0.001 0.0097,-0.001 0.01113,-0.005 0.0015,-0.004 0.0015,-0.01 0.01391,-0.0237 0.01246,-0.0139 0.03475,-0.0362 0.04455,-0.05 0.0098,-0.0138 0.0098,-0.0196 0.01339,-0.0282 0.0036,-0.009 0.0091,-0.0197 0.01471,-0.0309 0.0056,-0.0111 0.01112,-0.0222 0.01721,-0.0262 0.0061,-0.004 0.01167,-0.004 0.01312,-0.008 0.0015,-0.004 0.0015,-0.01 0.0056,-0.0113 0.0041,-0.001 0.0097,-0.001 0.01114,-0.008 0.0015,-0.007 0.0015,-0.018 0.0086,-0.0258 0.0071,-0.008 0.01834,-0.0134 0.02232,-0.0194 0.004,-0.006 0.004,-0.0118 0.008,-0.0173 0.004,-0.006 0.0097,-0.0112 0.0112,-0.0167 0.0015,-0.005 0.0015,-0.0112 0.0055,-0.0167 0.004,-0.006 0.0097,-0.0112 0.01776,-0.0225 0.008,-0.0113 0.01921,-0.0281 0.02375,-0.0389 0.0045,-0.0108 0.0045,-0.0166 0.01143,-0.0249 0.0069,-0.008 0.01802,-0.0195 0.02227,-0.0277 0.0042,-0.008 0.0042,-0.014 0.0083,-0.0195 0.004,-0.006 0.0097,-0.0112 0.01477,-0.0198 0.005,-0.009 0.01059,-0.0197 0.01663,-0.0278 0.006,-0.008 0.01173,-0.0137 0.01318,-0.0192 0.0015,-0.005 0.0015,-0.0113 0.0083,-0.0196 0.0069,-0.008 0.01802,-0.0195 0.02227,-0.0306 0.0042,-0.0112 0.0042,-0.0222 0.0083,-0.0265 0.0041,-0.004 0.0097,-0.004 0.01113,-0.008 0.0015,-0.004 0.0015,-0.01 0.0084,-0.0182 0.0069,-0.008 0.01801,-0.0195 0.02226,-0.0277 0.0042,-0.008 0.0042,-0.014 0.0083,-0.0155 0.0041,-0.001 0.0097,-0.001 0.01472,-0.009 0.005,-0.007 0.01059,-0.0183 0.01668,-0.0223 0.0061,-0.004 0.01167,-0.004 0.01313,-0.0109 0.0015,-0.007 0.0015,-0.018 0.01112,-0.0319 0.0097,-0.0139 0.02642,-0.0307 0.03344,-0.0417 0.007,-0.011 0.007,-0.0168 0.01412,-0.0218 0.0071,-0.005 0.01835,-0.0106 0.02232,-0.0166 0.004,-0.006 0.004,-0.0118 0.0081,-0.0132 0.0041,-0.001 0.0097,-0.001 0.01114,-0.008 0.0015,-0.007 0.0015,-0.018 0.0055,-0.0263 0.004,-0.008 0.0097,-0.014 0.01529,-0.0155 0.0056,-0.001 0.01113,-0.001 0.01259,-0.008 0.0015,-0.007 0.0015,-0.018 0.0056,-0.0222 0.0041,-0.004 0.0097,-0.004 0.01114,-0.008 0.0015,-0.004 0.0015,-0.01 0.0056,-0.0112 0.0041,-0.001 0.0097,-0.001 0.01471,-0.009 0.005,-0.007 0.01059,-0.0183 0.01668,-0.0223 0.0061,-0.004 0.01168,-0.004 0.01314,-0.008 0.0015,-0.004 0.0015,-0.01 0.0056,-0.0112 0.0041,-0.001 0.0097,-0.001 0.01113,-0.008 0.0015,-0.007 0.0015,-0.018 0.0056,-0.0222 0.0041,-0.004 0.0097,-0.004 0.01519,-0.008 0.0055,-0.004 0.0112,-0.01 0.01265,-0.0181 0.0015,-0.008 0.0015,-0.0195 0.0056,-0.0237 0.0041,-0.004 0.0097,-0.004 0.01114,-0.008 0.0015,-0.004 0.0015,-0.01 0.0084,-0.0181 0.0069,-0.008 0.01802,-0.0195 0.02227,-0.0362 0.0042,-0.0167 0.0042,-0.039 0.0083,-0.0528 0.004,-0.0139 0.0097,-0.0195 0.01119,-0.0391 0.0015,-0.0195 0.0015,-0.0529 0.0015,-0.10576 0,-0.0529 0,-0.12528 0,-0.1754 0,-0.0501 0,-0.0779 0,-0.0945 0,-0.0166 0,-0.0224 0,-0.0279 0,-0.005 0,-0.0113 0.004,-0.0168 0.004,-0.005 0.0097,-0.0112 0.0112,-0.0166 0.0015,-0.005 0.0015,-0.0113 0.005,-0.0199 0.0036,-0.009 0.0091,-0.0197 0.01112,-0.0306 0.002,-0.0109 0.002,-0.022 0.006,-0.0303 0.004,-0.008 0.0097,-0.014 0.01119,-0.0251 0.0015,-0.0111 0.0015,-0.0279 0.0056,-0.0349 0.0041,-0.007 0.0097,-0.007 0.01471,-0.0142 0.005,-0.007 0.01059,-0.0183 0.01663,-0.0263 0.006,-0.008 0.01173,-0.0137 0.01318,-0.0248 0.0015,-0.0111 0.0015,-0.0279 0.0055,-0.0389 0.004,-0.011 0.0097,-0.0167 0.01119,-0.0279 0.0015,-0.0111 0.0015,-0.0279 0.0056,-0.0349 0.0041,-0.007 0.0097,-0.007 0.01113,-0.0195 0.0015,-0.0124 0.0015,-0.0347 0.0015,-0.12104 0,-0.0863 0,-0.23663 0,-0.38432"
       id="path3850"
       inkscape:connector-curvature="0"
       inkscape:path-effect="#path-effect3852"
       inkscape:original-d="m 42.345514,105.53479 c 0.0026,0.0419 0.0026,0.0864 0,0.13364 0.0026,0.003 0.0026,0.008 0,0.0167 0.0026,0.003 0.0026,0.008 0,0.0167 0.0082,0.003 0.01378,0.008 0.01669,0.0167 0.0082,0.0141 0.01378,0.0308 0.0167,0.0501 0.0082,0.003 0.01378,0.008 0.01669,0.0167 0.0082,0.014 0.01378,0.0308 0.01669,0.0501 0.0082,0.003 0.01378,0.008 0.01669,0.0167 0.0082,0.008 0.01378,0.0196 0.01669,0.0334 0.0026,0.003 0.0026,0.008 0,0.0167 0.01379,0.014 0.02492,0.0308 0.03341,0.0501 0.0026,0.003 0.0026,0.008 0,0.0167 0.0082,-0.003 0.01378,-0.003 0.0167,0 0.0082,0.008 0.01378,0.0196 0.01669,0.0334 0.0026,0.003 0.0026,0.008 0,0.0167 0.0082,-0.003 0.01378,-0.003 0.01669,0 0.0026,0.008 0.0026,0.0196 0,0.0334 0.0082,-0.003 0.01379,-0.003 0.0167,0 0.0082,0.003 0.01378,0.008 0.01669,0.0167 0.0026,0.003 0.0026,0.008 0,0.0167 0.0082,0.003 0.01378,0.008 0.0167,0.0167 0.0026,0.003 0.0026,0.008 0,0.0167 0.01378,0.003 0.02492,0.008 0.03341,0.0167 0.0026,0.003 0.0026,0.008 0,0.0167 0.0082,0.003 0.01378,0.008 0.01669,0.0167 0.0026,0.008 0.0026,0.0196 0,0.0334 0.0082,-0.003 0.01378,-0.003 0.01669,0 0.0082,0.014 0.01378,0.0308 0.01669,0.0501 0.01378,0.008 0.02492,0.0196 0.03341,0.0334 0.0026,0.003 0.0026,0.008 0,0.0167 0.0082,0.003 0.01379,0.008 0.0167,0.0167 0.0026,0.003 0.0026,0.008 0,0.0167 0.01378,0.003 0.02492,0.008 0.03341,0.0167 0.0026,0.003 0.0026,0.009 0,0.0167 0.0082,0.003 0.01378,0.008 0.0167,0.0167 0.0026,0.003 0.0026,0.008 0,0.0167 0.01378,0.003 0.02492,0.008 0.03341,0.0167 0.0026,0.003 0.0026,0.008 0,0.0167 0.01934,0.014 0.03605,0.0308 0.05011,0.0501 0.0026,0.003 0.0026,0.008 0,0.0167 0.0082,-0.003 0.01378,-0.003 0.01669,0 0.0026,0.003 0.0026,0.008 0,0.0167 0.0082,-0.003 0.01378,-0.003 0.01669,0 0.0026,0.003 0.0026,0.008 0,0.0167 0.01934,0.014 0.03605,0.0308 0.05011,0.0501 0.0026,0.003 0.0026,0.008 0,0.0167 0.0082,-0.003 0.01378,-0.003 0.01669,0 0.0082,0.003 0.01379,0.008 0.0167,0.0167 0.0082,0.008 0.01378,0.0196 0.0167,0.0334 0.0082,-0.003 0.01378,-0.003 0.01669,0 0.01379,0.008 0.02492,0.0196 0.03341,0.0334 0.01378,0.003 0.02492,0.008 0.03341,0.0167 0.0082,0.003 0.01378,0.008 0.01669,0.0167 0.0082,-0.003 0.01378,-0.003 0.01669,0 0.01378,0.008 0.02492,0.0196 0.03341,0.0334 0.0082,-0.003 0.01378,-0.003 0.01669,0 0.0026,0.003 0.0026,0.009 0,0.0167 0.0082,-0.003 0.01379,-0.003 0.0167,0 0.0026,0.003 0.0026,0.008 0,0.0167 0.01934,0.003 0.03605,0.008 0.05011,0.0167 0.01934,0.014 0.03605,0.0308 0.05011,0.0501 0.0082,-0.003 0.01378,-0.003 0.0167,0 0.0026,0.003 0.0026,0.008 0,0.0167 0.0082,-0.003 0.01378,-0.003 0.01669,0 0.01934,0.0141 0.03605,0.0308 0.05011,0.0501 0.0082,-0.003 0.01378,-0.003 0.01669,0 0.0082,0.008 0.01378,0.0196 0.01669,0.0334 0.0082,-0.003 0.01379,-0.003 0.0167,0 0.0026,0.003 0.0026,0.008 0,0.0167 0.01378,0.003 0.02492,0.008 0.03341,0.0167 0.0026,0.003 0.0026,0.008 0,0.0167 0.0082,-0.003 0.01378,-0.003 0.0167,0 0.0026,0.003 0.0026,0.008 0,0.0167 0.0082,-0.003 0.01378,-0.003 0.0167,0 0.0026,0.003 0.0026,0.008 0,0.0167 0.02492,0.0196 0.04719,0.0419 0.06682,0.0668 0.0082,-0.003 0.01378,-0.003 0.01669,0 0.0026,0.003 0.0026,0.008 0,0.0167 0.0082,0.003 0.01378,0.008 0.01669,0.0167 0.0082,0.003 0.01378,0.008 0.01669,0.0167 0.01379,0.003 0.02492,0.008 0.03341,0.0167 0.0026,0.003 0.0026,0.009 0,0.0167 0.0082,-0.003 0.01378,-0.003 0.01669,0 0.0082,0.003 0.01378,0.008 0.0167,0.0167 0.0082,-0.003 0.01378,-0.003 0.0167,0 0.01378,0.008 0.02492,0.0196 0.03341,0.0334 0.0082,-0.003 0.01378,-0.003 0.01669,0 0.01378,0.008 0.02492,0.0196 0.03341,0.0334 0.0082,-0.003 0.01378,-0.003 0.01669,0 0.0082,0.003 0.01378,0.008 0.01669,0.0167 0.01934,0.003 0.03606,0.008 0.05012,0.0167 0.01378,0.008 0.02492,0.0196 0.03341,0.0334 0.01378,-0.003 0.02492,-0.003 0.03341,0 0.0082,0.003 0.01378,0.008 0.01669,0.0167 0.01934,-0.003 0.03606,-0.003 0.05011,0 0.01934,0.003 0.03606,0.008 0.05012,0.0167 0.01934,0.003 0.03605,0.008 0.05011,0.0167 0.02492,0.008 0.04719,0.0196 0.06682,0.0334 0.03606,0.003 0.06946,0.008 0.100227,0.0167 0.01934,0.003 0.03605,0.008 0.05011,0.0167 0.04719,-0.003 0.09174,-0.003 0.133636,0 0.01934,0.009 0.03605,0.0196 0.05011,0.0334 0.04162,-0.003 0.0806,-0.003 0.11693,0 0.0082,-0.003 0.01378,-0.003 0.01669,0 0.0082,-0.003 0.01379,-0.003 0.0167,0 0.0026,0.003 0.0026,0.008 0,0.0167 0.0082,-0.003 0.01378,-0.003 0.01669,0 0.03049,-0.003 0.05832,-0.003 0.08352,0 0.0082,0.003 0.01378,0.008 0.01669,0.0167 0.0082,-0.003 0.01379,-0.003 0.0167,0 0.0082,0.003 0.01378,0.008 0.01669,0.0167 0.0082,-0.003 0.01378,-0.003 0.01669,0 0.03606,-0.003 0.06946,-0.003 0.100224,0 0.0082,0.003 0.01378,0.008 0.01669,0.0167 0.0082,-0.003 0.01378,-0.003 0.0167,0 0.01378,-0.003 0.02492,-0.003 0.03341,0 0.0082,0.003 0.01378,0.008 0.01669,0.0167 0.0082,-0.003 0.01378,-0.003 0.01669,0 0.01378,-0.003 0.02492,-0.003 0.03341,0 0.02492,-0.003 0.04719,-0.003 0.06682,0 0.01379,-0.003 0.02492,-0.003 0.03341,0 0.0082,-0.003 0.01378,-0.003 0.01669,0 0.0082,0.003 0.01378,0.008 0.01669,0.0167 0.01378,-0.003 0.02492,-0.003 0.03341,0 0.01378,0.003 0.02492,0.008 0.03341,0.0167 0.03606,-0.003 0.06946,-0.003 0.100227,0 0.0082,-0.003 0.01378,-0.003 0.01669,0 0.0082,0.003 0.01378,0.008 0.0167,0.0167 0.02492,-0.003 0.04719,-0.003 0.06682,0 0.0082,0.003 0.01378,0.008 0.01669,0.0167 0.04162,-0.003 0.0806,-0.003 0.11693,0 0.0082,-0.003 0.01378,-0.003 0.0167,0 0.0082,0.003 0.01378,0.008 0.01669,0.0167 0.03049,-0.003 0.05833,-0.003 0.08352,0 0.06389,-0.003 0.125142,-0.003 0.183748,0 0.03048,0.003 0.05832,0.008 0.08352,0.0167 0.0082,-0.003 0.01378,-0.003 0.0167,0 0.01378,-0.003 0.02492,-0.003 0.03341,0 0.03049,-0.003 0.05833,-0.003 0.08352,0 0.03049,-0.003 0.05832,-0.003 0.08352,0 0.0082,-0.003 0.01378,-0.003 0.0167,0 0.0026,-0.008 0.0026,-0.0138 0,-0.0167 0.01378,-0.003 0.02492,-0.003 0.03341,0 0.0082,-0.008 0.01378,-0.0138 0.01669,-0.0167 0.01378,-0.003 0.02492,-0.003 0.03341,0 0.0082,-0.008 0.01378,-0.0138 0.01669,-0.0167 0.0082,-0.003 0.01379,-0.003 0.0167,0 0.0026,-0.008 0.0026,-0.0138 0,-0.0167 0.01378,-0.003 0.02492,-0.003 0.03341,0 0.0082,-0.008 0.01378,-0.0138 0.01669,-0.0167 0.0082,-0.003 0.01378,-0.003 0.01669,0 0.0082,-0.008 0.01378,-0.0138 0.0167,-0.0167 0.0082,-0.003 0.01378,-0.003 0.01669,0 0.0082,-0.008 0.01378,-0.0138 0.01669,-0.0167 0.02492,-0.003 0.04719,-0.003 0.06681,0 0.0082,-0.008 0.01379,-0.0138 0.0167,-0.0167 0.0082,-0.003 0.01378,-0.003 0.01669,0 0.0082,-0.008 0.01378,-0.0138 0.01669,-0.0167 0.01379,-0.003 0.02492,-0.003 0.03341,0 0.0082,-0.008 0.01378,-0.0138 0.01669,-0.0167 0.01378,-0.008 0.02492,-0.0138 0.03341,-0.0167 0.01934,-0.003 0.03605,-0.003 0.05011,0 0.01934,-0.008 0.03605,-0.0138 0.05011,-0.0167 0.02492,-0.003 0.04719,-0.003 0.06682,0 0.01934,-0.0138 0.03605,-0.0249 0.05011,-0.0334 0.01378,-0.003 0.02492,-0.003 0.03341,0 0.01378,-0.0138 0.02492,-0.0249 0.03341,-0.0334 0.0082,-0.003 0.01378,-0.003 0.01669,0 0.0082,-0.008 0.01379,-0.0138 0.0167,-0.0167 0.0082,-0.003 0.01378,-0.003 0.01669,0 0.0026,-0.008 0.0026,-0.0138 0,-0.0167 0.0082,-0.008 0.01378,-0.0138 0.0167,-0.0167 0.0082,-0.008 0.01378,-0.0138 0.0167,-0.0167 0.0082,-0.003 0.01378,-0.003 0.01669,0 0.0082,-0.008 0.01378,-0.0138 0.01669,-0.0167 0.0082,-0.008 0.01378,-0.0138 0.01669,-0.0167 0.02492,-0.0249 0.04719,-0.0472 0.06682,-0.0668 0.0082,-0.008 0.01379,-0.0138 0.0167,-0.0167 0.01378,-0.008 0.02492,-0.0138 0.03341,-0.0167 0.0026,-0.008 0.0026,-0.0138 0,-0.0167 0.0082,-0.003 0.01378,-0.003 0.0167,0 0.0026,-0.008 0.0026,-0.0138 0,-0.0167 0.0082,-0.003 0.01378,-0.003 0.0167,0 0.0026,-0.008 0.0026,-0.0138 0,-0.0167 0.01378,-0.008 0.02492,-0.0138 0.03341,-0.0167 0.0082,-0.003 0.01378,-0.003 0.01669,0 0.0026,-0.008 0.0026,-0.0138 0,-0.0167 0.0082,-0.003 0.01378,-0.003 0.01669,0 0.01378,-0.008 0.02492,-0.0138 0.03341,-0.0167 0.0082,-0.0138 0.01378,-0.0249 0.01669,-0.0334 0.0082,-0.003 0.01379,-0.003 0.0167,0 0.0026,-0.008 0.0026,-0.0138 0,-0.0167 0.0082,-0.003 0.01378,-0.003 0.01669,0 0.0082,-0.0138 0.01378,-0.0249 0.01669,-0.0334 0.0082,-0.003 0.01379,-0.003 0.0167,0 0.0026,-0.008 0.0026,-0.0138 0,-0.0167 0.0082,-0.003 0.01378,-0.003 0.01669,0 0.01378,-0.008 0.02492,-0.0138 0.03341,-0.0167 0.0026,-0.008 0.0026,-0.0138 0,-0.0167 0.01378,-0.003 0.02492,-0.003 0.03341,0 0.0026,-0.008 0.0026,-0.0138 0,-0.0167 0.0082,-0.003 0.01378,-0.003 0.01669,0 0.02492,-0.0249 0.04719,-0.0472 0.06682,-0.0668 0.0082,-0.003 0.01378,-0.003 0.0167,0 0.0082,-0.0138 0.01378,-0.0249 0.01669,-0.0334 0.0082,-0.003 0.01379,-0.003 0.0167,0 0.0026,-0.008 0.0026,-0.0138 0,-0.0167 0.01378,-0.008 0.02492,-0.0138 0.03341,-0.0167 0.0026,-0.008 0.0026,-0.0138 0,-0.0167 0.0082,-0.003 0.01378,-0.003 0.01669,0 0.0026,-0.008 0.0026,-0.0138 0,-0.0167 0.0082,-0.008 0.01378,-0.0138 0.01669,-0.0167 0.0026,-0.008 0.0026,-0.0138 0,-0.0167 0.0082,-0.008 0.01378,-0.0138 0.01669,-0.0167 0.0026,-0.008 0.0026,-0.0138 0,-0.0167 0.01934,-0.0193 0.03606,-0.0361 0.05011,-0.0501 0.0026,-0.008 0.0026,-0.0138 0,-0.0167 0.0082,-0.003 0.01378,-0.003 0.01669,0 0.0026,-0.008 0.0026,-0.0138 0,-0.0167 0.02492,-0.0249 0.04719,-0.0472 0.06682,-0.0668 0.0026,-0.008 0.0026,-0.0138 0,-0.0167 0.0082,-0.0138 0.01378,-0.0249 0.0167,-0.0334 0.0082,-0.0138 0.01378,-0.0249 0.01669,-0.0334 0.0082,-0.003 0.01378,-0.003 0.01669,0 0.0026,-0.008 0.0026,-0.0138 0,-0.0167 0.0082,-0.003 0.01378,-0.003 0.01669,0 0.0026,-0.0138 0.0026,-0.0249 0,-0.0334 0.01378,-0.008 0.02492,-0.0138 0.03341,-0.0167 0.0026,-0.008 0.0026,-0.0138 0,-0.0167 0.0082,-0.008 0.01379,-0.0138 0.0167,-0.0167 0.0026,-0.008 0.0026,-0.0138 0,-0.0167 0.0082,-0.008 0.01378,-0.0138 0.01669,-0.0167 0.01378,-0.0193 0.02492,-0.0361 0.03341,-0.0501 0.0026,-0.008 0.0026,-0.0138 0,-0.0167 0.01378,-0.0138 0.02492,-0.0249 0.03341,-0.0334 0.0026,-0.008 0.0026,-0.0138 0,-0.0167 0.0082,-0.008 0.01378,-0.0138 0.0167,-0.0167 0.0082,-0.0138 0.01378,-0.0249 0.01669,-0.0334 0.0082,-0.008 0.01378,-0.0138 0.01669,-0.0167 0.0026,-0.008 0.0026,-0.0138 0,-0.0167 0.01378,-0.0138 0.02492,-0.0249 0.03341,-0.0334 0.0026,-0.0138 0.0026,-0.0249 0,-0.0334 0.0082,-0.003 0.01378,-0.003 0.01669,0 0.0026,-0.008 0.0026,-0.0138 0,-0.0167 0.01379,-0.0138 0.02492,-0.0249 0.03341,-0.0334 0.0026,-0.008 0.0026,-0.0138 0,-0.0167 0.0082,-0.003 0.01378,-0.003 0.0167,0 0.0082,-0.0138 0.01378,-0.0249 0.01669,-0.0334 0.0082,-0.003 0.01378,-0.003 0.01669,0 0.0026,-0.0138 0.0026,-0.0249 0,-0.0334 0.01934,-0.0193 0.03606,-0.0361 0.05011,-0.0501 0.0026,-0.008 0.0026,-0.0138 0,-0.0167 0.01378,-0.008 0.02492,-0.0138 0.03341,-0.0167 0.0026,-0.008 0.0026,-0.0138 0,-0.0167 0.0082,-0.003 0.01378,-0.003 0.01669,0 0.0026,-0.0138 0.0026,-0.0249 0,-0.0334 0.0082,-0.008 0.01378,-0.0138 0.01669,-0.0167 0.0082,-0.003 0.01378,-0.003 0.0167,0 0.0026,-0.0138 0.0026,-0.0249 0,-0.0334 0.0082,-0.003 0.01378,-0.003 0.01669,0 0.0026,-0.008 0.0026,-0.0138 0,-0.0167 0.0082,-0.003 0.01378,-0.003 0.01669,0 0.0082,-0.0138 0.01378,-0.0249 0.01669,-0.0334 0.0082,-0.003 0.01379,-0.003 0.0167,0 0.0026,-0.008 0.0026,-0.0138 0,-0.0167 0.0082,-0.003 0.01378,-0.003 0.01669,0 0.0026,-0.0138 0.0026,-0.0249 0,-0.0334 0.0082,-0.003 0.01378,-0.003 0.01669,0 0.0082,-0.008 0.01379,-0.0138 0.0167,-0.0167 0.0026,-0.0138 0.0026,-0.0249 0,-0.0334 0.0082,-0.003 0.01378,-0.003 0.01669,0 0.0026,-0.008 0.0026,-0.0138 0,-0.0167 0.01378,-0.0138 0.02492,-0.0249 0.03341,-0.0334 0.0026,-0.0249 0.0026,-0.0472 0,-0.0668 0.0082,-0.008 0.01378,-0.0138 0.01669,-0.0167 0.0026,-0.0361 0.0026,-0.0695 0,-0.10022 0.0026,-0.075 0.0026,-0.14742 0,-0.21716 0.0026,-0.0305 0.0026,-0.0583 0,-0.0835 0.0026,-0.008 0.0026,-0.0138 0,-0.0167 0.0026,-0.008 0.0026,-0.0138 0,-0.0167 0.0082,-0.008 0.01378,-0.0138 0.0167,-0.0167 0.0026,-0.008 0.0026,-0.0138 0,-0.0167 0.0082,-0.0138 0.01378,-0.0249 0.01669,-0.0334 0.0026,-0.0138 0.0026,-0.0249 0,-0.0334 0.0082,-0.008 0.01378,-0.0138 0.01669,-0.0167 0.0026,-0.0193 0.0026,-0.0361 0,-0.0501 0.0082,-0.003 0.01378,-0.003 0.01669,0 0.0082,-0.0138 0.01378,-0.0249 0.0167,-0.0334 0.0082,-0.008 0.01378,-0.0138 0.01669,-0.0167 0.0026,-0.0193 0.0026,-0.0361 0,-0.0501 0.0082,-0.008 0.01378,-0.0138 0.01669,-0.0167 0.0026,-0.0193 0.0026,-0.0361 0,-0.0501 0.0082,-0.003 0.01378,-0.003 0.01669,0 0.0026,-0.0249 0.0026,-0.0472 0,-0.0668 0.0026,-0.15298 0.0026,-0.30332 0,-0.45101" />
  </g>
</svg>
